<svg id="Livello_1" data-name="Livello 1" xmlns="http://www.w3.org/2000/svg" viewBox="0 0 539.98 248.21"><defs><style>.cls-1{fill:#fff;}</style></defs><title>tuples-bianco_1</title><path class="cls-1" d="M192.33,84.12h17V128.7a36.16,36.16,0,0,1-4.25,17.73,29.88,29.88,0,0,1-11.82,11.9,34.82,34.82,0,0,1-17.11,4.17A35.35,35.35,0,0,1,159,158.34a29.78,29.78,0,0,1-11.9-11.91,36.11,36.11,0,0,1-4.25-17.73V84.12h17v43.95a23,23,0,0,0,2,9.89,13.46,13.46,0,0,0,5.56,6.14,17.32,17.32,0,0,0,8.77,2.14c5.11,0,9-1.55,11.83-4.73s4.3-7.71,4.3-13.44Zm106,18.27a45.14,45.14,0,0,1,0,40.75,37.52,37.52,0,0,1-13.41,14.38,35.78,35.78,0,0,1-19.13,5.29,34.14,34.14,0,0,1-15.9-3.68,29.67,29.67,0,0,1-7.56-5.5v40.68H225.26V84.12h17.05v7.72a30.94,30.94,0,0,1,7.72-5.6,33.9,33.9,0,0,1,15.74-3.68,35.39,35.39,0,0,1,19.14,5.38A38,38,0,0,1,298.31,102.39Zm-54,7.88a29.3,29.3,0,0,0-.07,24.85,20.48,20.48,0,0,0,7.71,8.37,21.83,21.83,0,0,0,30.83-8.4,26.24,26.24,0,0,0,2.86-12.48,25.87,25.87,0,0,0-2.86-12.32,21.06,21.06,0,0,0-19.36-11.46,20.82,20.82,0,0,0-19.11,11.44Zm71.76,51h17.05V51.35H316.08Zm106-40.66c0,1-.06,2.22-.16,3.48a34.61,34.61,0,0,1-.66,4.17l-.25,1.18H363.59a23.8,23.8,0,0,0,2.13,5.68,20.57,20.57,0,0,0,8.3,8.44,25.51,25.51,0,0,0,12.54,3,28,28,0,0,0,10.89-2.07,22.33,22.33,0,0,0,8.41-6.14l1.06-1.24,11.18,11.36-.92,1a37.76,37.76,0,0,1-13.65,9.91,42.9,42.9,0,0,1-17,3.4,41.17,41.17,0,0,1-20.8-5.27,39.57,39.57,0,0,1-14.52-14.35,42.23,42.23,0,0,1-.08-41,39.06,39.06,0,0,1,34.46-19.63,36.59,36.59,0,0,1,18.86,4.89,34.26,34.26,0,0,1,13,13.53A40.94,40.94,0,0,1,422.08,120.59Zm-16.94-5.87a22.52,22.52,0,0,0-2-6,18.09,18.09,0,0,0-6.93-7.5,21,21,0,0,0-10.93-2.68,23.79,23.79,0,0,0-11.9,2.92,20,20,0,0,0-7.84,8.14,22.68,22.68,0,0,0-1.94,5.14Z"/><path class="cls-1" d="M489.45,54.1l-6.24,14.78a16.69,16.69,0,0,0-4.92-.73A16.89,16.89,0,0,0,462,80.55a15,15,0,0,0-.42,3.57v77.65c0,.25,0,.49,0,.73a32.54,32.54,0,0,1-1,7.51.27.27,0,0,0,0,.12,33,33,0,0,1-30.93,24.51h-.88a32.77,32.77,0,0,1-11.16-2l6.24-14.78a16.69,16.69,0,0,0,4.92.73A16.9,16.9,0,0,0,445,166.34a15.61,15.61,0,0,0,.44-3.7V85c0-.31,0-.61,0-.91a32.8,32.8,0,0,1,32.17-32h.69A32.77,32.77,0,0,1,489.45,54.1Z"/><path class="cls-1" d="M143.43,69.1H105.86a32.26,32.26,0,0,1,3,7.57.27.27,0,0,0,0,.12,32.16,32.16,0,0,1,1,7.33c0,.3,0,.6,0,.91v77.61a15.37,15.37,0,0,0,.42,3.61,16.89,16.89,0,0,0,16.27,12.4,16.69,16.69,0,0,0,4.92-.73l6.24,14.78a32.77,32.77,0,0,1-11.16,2H126A32.07,32.07,0,0,1,94.83,170a32.54,32.54,0,0,1-1-7.51c0-.24,0-.48,0-.73V84.12a15.28,15.28,0,0,0-.44-3.66A16.89,16.89,0,0,0,85,70.11a8.61,8.61,0,0,0-4-1H50.54v-17h92.89Z"/><circle class="cls-1" cx="131.93" cy="186.17" r="11.5"/><circle class="cls-1" cx="422.56" cy="185.17" r="11.5"/></svg>