<svg id="Livello_1" data-name="Livello 1" xmlns="http://www.w3.org/2000/svg" viewBox="0 0 539.98 247.4"><title>tuples-nero_1</title><path d="M192.33,83.32h17v44.57a36.23,36.23,0,0,1-4.25,17.74,29.94,29.94,0,0,1-11.82,11.9,34.92,34.92,0,0,1-17.11,4.16A35.35,35.35,0,0,1,159,157.53a29.78,29.78,0,0,1-11.9-11.91,36.11,36.11,0,0,1-4.25-17.73V83.32h17v43.94a23.09,23.09,0,0,0,2,9.9,13.44,13.44,0,0,0,5.56,6.13,17.32,17.32,0,0,0,8.77,2.14c5.11,0,9-1.55,11.83-4.73s4.3-7.71,4.3-13.44Zm106,18.27a45.12,45.12,0,0,1,0,40.74,37.45,37.45,0,0,1-13.41,14.38,35.79,35.79,0,0,1-19.13,5.3,34.26,34.26,0,0,1-15.9-3.68,29.94,29.94,0,0,1-7.56-5.51V193.5H225.26V83.32h17.05V91A31,31,0,0,1,250,85.43a33.89,33.89,0,0,1,15.74-3.67,35.39,35.39,0,0,1,19.14,5.38A37.9,37.9,0,0,1,298.31,101.59Zm-54,7.87a29.3,29.3,0,0,0-.07,24.85,20.42,20.42,0,0,0,7.71,8.37,21.81,21.81,0,0,0,30.83-8.4,26.21,26.21,0,0,0,2.86-12.48,25.87,25.87,0,0,0-2.86-12.32A21.06,21.06,0,0,0,263.43,98a20.82,20.82,0,0,0-19.11,11.44Zm71.76,51h17.05V50.54H316.08Zm106-40.66c0,1-.06,2.22-.16,3.48a34.61,34.61,0,0,1-.66,4.17l-.25,1.18H363.59a23.8,23.8,0,0,0,2.13,5.68,20.57,20.57,0,0,0,8.3,8.44,25.51,25.51,0,0,0,12.54,3,28,28,0,0,0,10.89-2.07,22.33,22.33,0,0,0,8.41-6.14l1.06-1.24,11.18,11.36-.92,1a37.76,37.76,0,0,1-13.65,9.91,42.9,42.9,0,0,1-17,3.4,41.17,41.17,0,0,1-20.8-5.27,39.57,39.57,0,0,1-14.52-14.35,42.23,42.23,0,0,1-.08-41,39.06,39.06,0,0,1,34.46-19.63,36.59,36.59,0,0,1,18.86,4.89,34.26,34.26,0,0,1,13,13.53A40.94,40.94,0,0,1,422.08,119.78Zm-16.94-5.87a22.52,22.52,0,0,0-2-6,18.09,18.09,0,0,0-6.93-7.5,21,21,0,0,0-10.93-2.68,23.79,23.79,0,0,0-11.9,2.92,20,20,0,0,0-7.84,8.14,22.68,22.68,0,0,0-1.94,5.14Z"/><path d="M489.45,53.3l-6.24,14.78a16.69,16.69,0,0,0-4.92-.73A16.89,16.89,0,0,0,462,79.75a15,15,0,0,0-.42,3.57V161c0,.25,0,.49,0,.73a32.54,32.54,0,0,1-1,7.51.27.27,0,0,0,0,.12,33,33,0,0,1-30.93,24.51h-.88a32.77,32.77,0,0,1-11.16-1.95l6.24-14.78a16.69,16.69,0,0,0,4.92.73A16.9,16.9,0,0,0,445,165.54a15.61,15.61,0,0,0,.44-3.7V84.23c0-.31,0-.61,0-.91a32.8,32.8,0,0,1,32.17-32h.69A32.77,32.77,0,0,1,489.45,53.3Z"/><path d="M143.43,68.3H105.86a32.26,32.26,0,0,1,3,7.57.27.27,0,0,0,0,.12,32.16,32.16,0,0,1,1,7.33c0,.3,0,.6,0,.91v77.61a15.37,15.37,0,0,0,.42,3.61,16.89,16.89,0,0,0,16.27,12.4,16.69,16.69,0,0,0,4.92-.73l6.24,14.78a32.77,32.77,0,0,1-11.16,1.95H126a32.07,32.07,0,0,1-31.15-24.64,32.54,32.54,0,0,1-1-7.51c0-.24,0-.48,0-.73V83.32a15.28,15.28,0,0,0-.44-3.66A16.89,16.89,0,0,0,85,69.31a8.61,8.61,0,0,0-4-1H50.54v-17h92.89Z"/><circle cx="131.93" cy="185.36" r="11.5"/><circle cx="422.56" cy="184.36" r="11.5"/></svg>