<svg id="Livello_1" data-name="Livello 1" xmlns="http://www.w3.org/2000/svg" xmlns:xlink="http://www.w3.org/1999/xlink" viewBox="0 0 539.98 247.43"><defs><style>.cls-1{fill:#fff;}.cls-2{fill:url(#Sfumatura_senza_nome_29);}.cls-3{fill:url(#Sfumatura_senza_nome_29-2);}</style><linearGradient id="Sfumatura_senza_nome_29" x1="503.15" y1="10.69" x2="433.71" y2="167.08" gradientUnits="userSpaceOnUse"><stop offset="0.13" stop-color="#fff" stop-opacity="0"/><stop offset="0.18" stop-color="#fff" stop-opacity="0.03"/><stop offset="0.27" stop-color="#fff" stop-opacity="0.1"/><stop offset="0.36" stop-color="#fff" stop-opacity="0.21"/><stop offset="0.46" stop-color="#fff" stop-opacity="0.38"/><stop offset="0.58" stop-color="#fff" stop-opacity="0.59"/><stop offset="0.7" stop-color="#fff" stop-opacity="0.84"/><stop offset="0.77" stop-color="#fff"/></linearGradient><linearGradient id="Sfumatura_senza_nome_29-2" x1="54.58" y1="-10.36" x2="140.98" y2="152.59" xlink:href="#Sfumatura_senza_nome_29"/></defs><title>tuples-bianco-gradiente_1</title><path class="cls-1" d="M192.33,83.35h17v44.57a36.17,36.17,0,0,1-4.25,17.74,29.88,29.88,0,0,1-11.82,11.9,37.35,37.35,0,0,1-34.3,0,29.76,29.76,0,0,1-11.9-11.9,36.17,36.17,0,0,1-4.25-17.74V83.35h17v44a23.08,23.08,0,0,0,2,9.89,13.44,13.44,0,0,0,5.56,6.13,17.32,17.32,0,0,0,8.77,2.14c5.11,0,9-1.55,11.83-4.73s4.3-7.7,4.3-13.43Zm106,18.27a45.12,45.12,0,0,1,0,40.74,37.38,37.38,0,0,1-13.41,14.38,35.7,35.7,0,0,1-19.13,5.3,34.26,34.26,0,0,1-15.9-3.68,30.15,30.15,0,0,1-7.56-5.5v40.67H225.26V83.35h17.05v7.72a30.69,30.69,0,0,1,7.72-5.6,33.9,33.9,0,0,1,15.74-3.68,35.39,35.39,0,0,1,19.14,5.38A38,38,0,0,1,298.31,101.62Zm-54,7.88a29.28,29.28,0,0,0-.07,24.84,20.45,20.45,0,0,0,7.71,8.38,21.83,21.83,0,0,0,11.47,3.05,21.08,21.08,0,0,0,19.36-11.45,26.24,26.24,0,0,0,2.86-12.48,25.91,25.91,0,0,0-2.86-12.33,21.11,21.11,0,0,0-19.36-11.46,20.85,20.85,0,0,0-19.11,11.45Zm71.76,51h17.05V50.57H316.08Zm106-40.67c0,1-.06,2.22-.16,3.48a34.61,34.61,0,0,1-.66,4.17l-.25,1.18H363.59a23.8,23.8,0,0,0,2.13,5.68,20.57,20.57,0,0,0,8.3,8.44,25.51,25.51,0,0,0,12.54,3,28,28,0,0,0,10.89-2.07,22.33,22.33,0,0,0,8.41-6.14l1.06-1.24,11.18,11.36-.92,1a37.76,37.76,0,0,1-13.65,9.91,42.9,42.9,0,0,1-17,3.4,41.17,41.17,0,0,1-20.8-5.27,39.57,39.57,0,0,1-14.52-14.35,42.23,42.23,0,0,1-.08-41,39.06,39.06,0,0,1,34.46-19.63,36.59,36.59,0,0,1,18.86,4.89,34.26,34.26,0,0,1,13,13.53A40.94,40.94,0,0,1,422.08,119.81Zm-16.94-5.87a22.52,22.52,0,0,0-2-6,18.09,18.09,0,0,0-6.93-7.5,21,21,0,0,0-10.93-2.68,23.79,23.79,0,0,0-11.9,2.92,20,20,0,0,0-7.84,8.14,22.68,22.68,0,0,0-1.94,5.14Z"/><path class="cls-2" d="M489.45,53.33l-6.24,14.78a16.69,16.69,0,0,0-4.92-.73A16.89,16.89,0,0,0,462,79.78a15,15,0,0,0-.42,3.57V161c0,.25,0,.49,0,.73a32.54,32.54,0,0,1-1,7.51.27.27,0,0,0,0,.12,33,33,0,0,1-30.93,24.51h-.88a32.77,32.77,0,0,1-11.16-1.95l6.24-14.78a16.69,16.69,0,0,0,4.92.73A16.9,16.9,0,0,0,445,165.57a15.61,15.61,0,0,0,.44-3.7V84.26c0-.31,0-.61,0-.91a32.8,32.8,0,0,1,32.17-32h.69A32.77,32.77,0,0,1,489.45,53.33Z"/><path class="cls-3" d="M143.43,68.33H105.86a32.26,32.26,0,0,1,3,7.57.27.27,0,0,0,0,.12,32.16,32.16,0,0,1,1,7.33c0,.3,0,.6,0,.91v77.61a15.37,15.37,0,0,0,.42,3.61,16.89,16.89,0,0,0,16.27,12.4,16.69,16.69,0,0,0,4.92-.73l6.24,14.78a32.77,32.77,0,0,1-11.16,1.95H126a32.07,32.07,0,0,1-31.15-24.64,32.54,32.54,0,0,1-1-7.51c0-.24,0-.48,0-.73V83.35a15.28,15.28,0,0,0-.44-3.66A16.89,16.89,0,0,0,85,69.34a8.61,8.61,0,0,0-4-1H50.54v-17h92.89Z"/><circle class="cls-1" cx="131.93" cy="185.4" r="11.5"/><circle class="cls-1" cx="422.56" cy="184.4" r="11.5"/></svg>