<svg id="Livello_1" data-name="Livello 1" xmlns="http://www.w3.org/2000/svg" xmlns:xlink="http://www.w3.org/1999/xlink" viewBox="0 0 539.99 246.61"><defs><style>.cls-1{fill:#002252;}.cls-2{fill:url(#Sfumatura_senza_nome_22);}.cls-3{fill:url(#Sfumatura_senza_nome_22-2);}</style><linearGradient id="Sfumatura_senza_nome_22" x1="481.63" y1="163.02" x2="422.82" y2="83.19" gradientUnits="userSpaceOnUse"><stop offset="0.13" stop-color="#002252"/><stop offset="0.25" stop-color="#042557"/><stop offset="0.39" stop-color="#112e65"/><stop offset="0.55" stop-color="#263c7c"/><stop offset="0.71" stop-color="#43509d"/><stop offset="0.77" stop-color="#5059ab"/></linearGradient><linearGradient id="Sfumatura_senza_nome_22-2" x1="165.3" y1="174.27" x2="65.82" y2="39.25" xlink:href="#Sfumatura_senza_nome_22"/></defs><title>tuples-colori_1</title><path class="cls-1" d="M192.33,82.53h17V127.1a36.16,36.16,0,0,1-4.25,17.73,29.88,29.88,0,0,1-11.82,11.9,34.82,34.82,0,0,1-17.11,4.17A35.35,35.35,0,0,1,159,156.74a29.78,29.78,0,0,1-11.9-11.91,36.11,36.11,0,0,1-4.25-17.73V82.53h17v43.94a23,23,0,0,0,2,9.89,13.46,13.46,0,0,0,5.56,6.14,17.32,17.32,0,0,0,8.77,2.14c5.11,0,9-1.55,11.83-4.73s4.3-7.71,4.3-13.44Zm106,18.27a45.12,45.12,0,0,1,0,40.74,37.45,37.45,0,0,1-13.41,14.38,35.78,35.78,0,0,1-19.13,5.29,34.14,34.14,0,0,1-15.9-3.68,29.67,29.67,0,0,1-7.56-5.5v40.68H225.26V82.53h17.05v7.71a30.94,30.94,0,0,1,7.72-5.6A33.9,33.9,0,0,1,265.77,81a35.39,35.39,0,0,1,19.14,5.38A38,38,0,0,1,298.31,100.8Zm-54,7.87a29.3,29.3,0,0,0-.07,24.85,20.42,20.42,0,0,0,7.71,8.37,21.81,21.81,0,0,0,30.83-8.4A26.24,26.24,0,0,0,285.65,121a25.87,25.87,0,0,0-2.86-12.32,21.06,21.06,0,0,0-19.36-11.46,20.82,20.82,0,0,0-19.11,11.44Zm71.76,51h17.05V50.75H316.08Zm106-40.66c0,1.05-.06,2.22-.16,3.48a34.61,34.61,0,0,1-.66,4.17l-.25,1.18H363.59a23.8,23.8,0,0,0,2.13,5.68,20.57,20.57,0,0,0,8.3,8.44,25.51,25.51,0,0,0,12.54,3,28,28,0,0,0,10.89-2.07,22.33,22.33,0,0,0,8.41-6.14l1.06-1.24,11.18,11.36-.92,1a37.76,37.76,0,0,1-13.65,9.91,42.9,42.9,0,0,1-17,3.4,41.17,41.17,0,0,1-20.8-5.27,39.57,39.57,0,0,1-14.52-14.35,42.23,42.23,0,0,1-.08-41A39.06,39.06,0,0,1,385.62,81a36.59,36.59,0,0,1,18.86,4.89,34.26,34.26,0,0,1,13,13.53A40.94,40.94,0,0,1,422.08,119Zm-16.94-5.87a22.52,22.52,0,0,0-2-6,18.09,18.09,0,0,0-6.93-7.5,21,21,0,0,0-10.93-2.68,23.79,23.79,0,0,0-11.9,2.92,20,20,0,0,0-7.84,8.14,22.68,22.68,0,0,0-1.94,5.14Z"/><path class="cls-2" d="M489.45,52.5l-6.24,14.78a16.69,16.69,0,0,0-4.92-.73A16.89,16.89,0,0,0,462,79a15,15,0,0,0-.42,3.57v78.65c0,.25,0,.49,0,.73a32.54,32.54,0,0,1-1,7.51.27.27,0,0,0,0,.12A33,33,0,0,1,429.6,194h-.55a11.27,11.27,0,0,1-2,1.08,11.5,11.5,0,1,1,4.73-17.37,16.91,16.91,0,0,0,13.15-12,15.61,15.61,0,0,0,.44-3.7V83.43c0-.31,0-.61,0-.91a32.8,32.8,0,0,1,32.17-32h.69A32.77,32.77,0,0,1,489.45,52.5Z"/><path class="cls-3" d="M143.43,67.5H105.86a32.26,32.26,0,0,1,3,7.57.27.27,0,0,0,0,.12,32.16,32.16,0,0,1,1,7.33c0,.3,0,.6,0,.91V161a15.37,15.37,0,0,0,.42,3.61,16.91,16.91,0,0,0,13.1,12.1,11.5,11.5,0,1,1,1.18,16.75c-.2-.16-.39-.33-.58-.51a32.07,32.07,0,0,1-29.27-24.58,32.54,32.54,0,0,1-1-7.51c0-.24,0-.48,0-.73V82.52a15.28,15.28,0,0,0-.44-3.66A16.89,16.89,0,0,0,85,68.51a8.61,8.61,0,0,0-4-1H50.54v-17h92.89Z"/></svg>