<svg id="Livello_1" data-name="Livello 1" xmlns="http://www.w3.org/2000/svg" xmlns:xlink="http://www.w3.org/1999/xlink" viewBox="0 0 300 300"><defs><style>.cls-1{fill:url(#Sfumatura_senza_nome_29);}.cls-2{fill:url(#Sfumatura_senza_nome_29-2);}</style><linearGradient id="Sfumatura_senza_nome_29" x1="88.47" y1="21.61" x2="205.47" y2="197.86" gradientUnits="userSpaceOnUse"><stop offset="0.13" stop-color="#fff" stop-opacity="0"/><stop offset="0.18" stop-color="#fff" stop-opacity="0.03"/><stop offset="0.27" stop-color="#fff" stop-opacity="0.1"/><stop offset="0.36" stop-color="#fff" stop-opacity="0.21"/><stop offset="0.46" stop-color="#fff" stop-opacity="0.38"/><stop offset="0.58" stop-color="#fff" stop-opacity="0.59"/><stop offset="0.7" stop-color="#fff" stop-opacity="0.84"/><stop offset="0.77" stop-color="#fff"/></linearGradient><linearGradient id="Sfumatura_senza_nome_29-2" x1="66.09" y1="36.48" x2="183.09" y2="212.72" xlink:href="#Sfumatura_senza_nome_29"/></defs><title>icona-bianco-gradiente</title><path class="cls-1" d="M197,103H150.84a39.73,39.73,0,0,1,3.75,9.3.28.28,0,0,0,0,.15,39.23,39.23,0,0,1,1.25,9c0,.37,0,.74,0,1.12v60.94a19,19,0,0,0,.52,4.43,20.73,20.73,0,0,0,26,14.33l7.66,18.16a40.15,40.15,0,0,1-13.71,2.39h-.84a39.4,39.4,0,0,1-38.27-30.26,40,40,0,0,1-1.26-9.23c0-.29,0-.59,0-.89v-61a19,19,0,0,0-.54-4.49,20.77,20.77,0,0,0-10.27-12.72,10.57,10.57,0,0,0-5-1.24H84.12V83.33H197Z"/><circle class="cls-2" cx="182.87" cy="212.38" r="14.13"/></svg>