<svg id="Livello_1" data-name="Livello 1" xmlns="http://www.w3.org/2000/svg" viewBox="0 0 300 300"><title>icona-nero</title><path d="M193.84,221.28A14.12,14.12,0,0,1,174,223.35q-.37-.3-.72-.63A40.39,40.39,0,0,1,136,183.31c0-.29,0-.59,0-.89v-61a19.12,19.12,0,0,0-.54-4.5,20.78,20.78,0,0,0-10.27-12.71,10.57,10.57,0,0,0-5-1.24H84.12V83.33H197V103H150.84a39.3,39.3,0,0,1,3.75,9.3.28.28,0,0,0,0,.15,39.15,39.15,0,0,1,1.25,9c0,.37,0,.74,0,1.12v60.94a19.11,19.11,0,0,0,.52,4.43,20.76,20.76,0,0,0,16.1,14.86,14.12,14.12,0,0,1,21.32,18.5Z"/></svg>