<svg id="Livello_1" data-name="Livello 1" xmlns="http://www.w3.org/2000/svg" xmlns:xlink="http://www.w3.org/1999/xlink" viewBox="0 0 300 300"><defs><style>.cls-1{fill:url(#Sfumatura_senza_nome_18);}</style><linearGradient id="Sfumatura_senza_nome_18" x1="211.64" y1="211.06" x2="118.41" y2="61.9" gradientUnits="userSpaceOnUse"><stop offset="0.37" stop-color="#002252"/><stop offset="0.44" stop-color="#07275a"/><stop offset="0.55" stop-color="#1b3470"/><stop offset="0.69" stop-color="#3b4a93"/><stop offset="0.77" stop-color="#5059ab"/></linearGradient></defs><title>icona-colori</title><path class="cls-1" d="M193.84,221.28A14.12,14.12,0,0,1,174,223.35q-.37-.3-.72-.63A40.39,40.39,0,0,1,136,183.31c0-.29,0-.59,0-.89v-61a19.12,19.12,0,0,0-.54-4.5,20.78,20.78,0,0,0-10.27-12.71,10.57,10.57,0,0,0-5-1.24H84.12V83.33H197V103H150.84a39.3,39.3,0,0,1,3.75,9.3.28.28,0,0,0,0,.15,39.15,39.15,0,0,1,1.25,9c0,.37,0,.74,0,1.12v60.94a19.11,19.11,0,0,0,.52,4.43,20.76,20.76,0,0,0,16.1,14.86,14.12,14.12,0,0,1,21.32,18.5Z"/></svg>