<svg id="Livello_1" data-name="Livello 1" xmlns="http://www.w3.org/2000/svg" viewBox="0 0 539.99 274.25"><title>tuples-nero</title><polygon points="185.8 210.6 190.96 210.6 190.96 223.29 193.05 223.29 193.05 210.6 198.21 210.6 198.21 208.81 185.8 208.81 185.8 210.6"/><path d="M208.8,216.48A3.76,3.76,0,0,0,211,212.9a3.84,3.84,0,0,0-.58-2.11,4.07,4.07,0,0,0-1.66-1.45,5.72,5.72,0,0,0-2.53-.53h-5.6v14.48h2.07V217h1.34l5.38,6.3h2.61L206.59,217A5.84,5.84,0,0,0,208.8,216.48Zm-6.06-6h3.47a2.81,2.81,0,0,1,2,.69,2.29,2.29,0,0,1,.71,1.73,2.22,2.22,0,0,1-.71,1.75,2.92,2.92,0,0,1-2.05.65h-3.45Z"/><path d="M223.67,217.91a3.78,3.78,0,0,1-.49,2,3.39,3.39,0,0,1-1.34,1.29,4,4,0,0,1-1.94.46,4.09,4.09,0,0,1-2-.46,3.34,3.34,0,0,1-1.37-1.29,3.74,3.74,0,0,1-.51-2v-9.08H214v9.12a5.3,5.3,0,0,0,.78,2.85,5.64,5.64,0,0,0,2.12,2,6.24,6.24,0,0,0,3,.73,6.1,6.1,0,0,0,3-.73,5.65,5.65,0,0,0,2.08-2,5.35,5.35,0,0,0,.77-2.84v-9.14h-2.09Z"/><path d="M236.92,216.26a6.53,6.53,0,0,0-1.45-.79c-.53-.21-1.06-.4-1.59-.58a11.12,11.12,0,0,1-1.46-.57,3.37,3.37,0,0,1-1.07-.76,1.69,1.69,0,0,1-.4-1.18,1.66,1.66,0,0,1,.72-1.43,3.35,3.35,0,0,1,2-.51,4.09,4.09,0,0,1,1.79.37,4.88,4.88,0,0,1,1.46,1.13l1.4-1.34a5.52,5.52,0,0,0-1.93-1.45,6.38,6.38,0,0,0-2.68-.55,6.19,6.19,0,0,0-2.45.47,4,4,0,0,0-1.71,1.34,3.43,3.43,0,0,0-.63,2.09,3.76,3.76,0,0,0,.4,1.85,3.34,3.34,0,0,0,1.06,1.18,7,7,0,0,0,1.46.76c.53.2,1.06.39,1.58.55a9.73,9.73,0,0,1,1.45.58,3.08,3.08,0,0,1,1.07.82,2,2,0,0,1,.41,1.32,1.77,1.77,0,0,1-.83,1.54,3.77,3.77,0,0,1-2.18.57,5,5,0,0,1-2.33-.5,4.85,4.85,0,0,1-1.67-1.45l-1.41,1.34a7.07,7.07,0,0,0,2.26,1.82,7,7,0,0,0,3.06.62,6,6,0,0,0,3.79-1.08,3.61,3.61,0,0,0,1.39-3,4.06,4.06,0,0,0-.4-1.91A3.58,3.58,0,0,0,236.92,216.26Z"/><polygon points="239.16 210.6 244.33 210.6 244.33 223.29 246.41 223.29 246.41 210.6 251.58 210.6 251.58 208.81 239.16 208.81 239.16 210.6"/><polygon points="266.52 219.76 262.91 208.81 261.42 208.81 257.82 219.73 254.17 208.81 252.1 208.81 257.07 223.29 258.56 223.29 262.17 212.38 265.79 223.29 267.26 223.29 272.23 208.81 270.18 208.81 266.52 219.76"/><path d="M286.29,210.75a7.73,7.73,0,0,0-2.45-1.59,8.42,8.42,0,0,0-6,0,7.52,7.52,0,0,0-4.08,4,7.45,7.45,0,0,0,0,5.81,7.63,7.63,0,0,0,1.65,2.39,7.45,7.45,0,0,0,2.46,1.61,8,8,0,0,0,3,.57,7.85,7.85,0,0,0,3-.57,7.55,7.55,0,0,0,4.08-4,7.47,7.47,0,0,0,0-5.82A7.59,7.59,0,0,0,286.29,210.75Zm-.63,8.17a5.18,5.18,0,0,1-2,2,5.7,5.7,0,0,1-2.88.72,6,6,0,0,1-2.23-.41,5.34,5.34,0,0,1-1.76-1.16,5.23,5.23,0,0,1-1.14-1.78,6,6,0,0,1-.41-2.24,5.8,5.8,0,0,1,.71-2.88,5.2,5.2,0,0,1,2-2,5.71,5.71,0,0,1,2.87-.71,5.8,5.8,0,0,1,2.24.41,5.21,5.21,0,0,1,1.76,1.15,5.41,5.41,0,0,1,1.15,1.77,5.89,5.89,0,0,1,.41,2.22A5.71,5.71,0,0,1,285.66,218.92Z"/><path d="M299.49,216.48a3.76,3.76,0,0,0,2.24-3.58,3.84,3.84,0,0,0-.58-2.11,4.07,4.07,0,0,0-1.66-1.45,5.72,5.72,0,0,0-2.53-.53h-5.6v14.48h2.07V217h1.34l5.38,6.3h2.61L297.28,217A5.84,5.84,0,0,0,299.49,216.48Zm-6.06-6h3.47a2.81,2.81,0,0,1,2,.69,2.3,2.3,0,0,1,.72,1.73,2.23,2.23,0,0,1-.72,1.75,2.92,2.92,0,0,1-2.05.65h-3.45Z"/><polygon points="302.7 210.6 307.86 210.6 307.86 223.29 309.95 223.29 309.95 210.6 315.11 210.6 315.11 208.81 302.7 208.81 302.7 210.6"/><polygon points="327.41 214.9 319.64 214.9 319.64 208.81 317.57 208.81 317.57 223.29 319.64 223.29 319.64 216.7 327.41 216.7 327.41 223.29 329.48 223.29 329.48 208.81 327.41 208.81 327.41 214.9"/><polygon points="342.93 208.81 338.61 215.06 334.31 208.81 331.9 208.81 337.56 216.94 337.56 223.29 339.63 223.29 339.63 216.84 345.28 208.81 342.93 208.81"/><path d="M356.13,208.81l-6.26,14.48h2.22l1.38-3.27h6.75l1.38,3.27h2.24l-6.22-14.48Zm-1.94,9.5,2.66-6.33,2.66,6.33Z"/><rect x="366.12" y="208.81" width="2.07" height="14.48"/><path d="M192.33,83.32h17v44.57a36.23,36.23,0,0,1-4.25,17.74,29.94,29.94,0,0,1-11.82,11.9,34.92,34.92,0,0,1-17.11,4.16A35.35,35.35,0,0,1,159,157.53a29.78,29.78,0,0,1-11.9-11.91,36.11,36.11,0,0,1-4.25-17.73V83.32h17v43.94a23.09,23.09,0,0,0,2,9.9,13.44,13.44,0,0,0,5.56,6.13,17.32,17.32,0,0,0,8.77,2.14c5.11,0,9-1.55,11.83-4.73s4.3-7.71,4.3-13.44Zm106,18.27a45.12,45.12,0,0,1,0,40.74,37.45,37.45,0,0,1-13.41,14.38,35.79,35.79,0,0,1-19.13,5.3,34.26,34.26,0,0,1-15.9-3.68,29.94,29.94,0,0,1-7.56-5.51V193.5H225.26V83.32h17.05V91A31,31,0,0,1,250,85.43a33.89,33.89,0,0,1,15.74-3.67,35.39,35.39,0,0,1,19.14,5.38A37.9,37.9,0,0,1,298.31,101.59Zm-54,7.87a29.3,29.3,0,0,0-.07,24.85,20.42,20.42,0,0,0,7.71,8.37,21.81,21.81,0,0,0,30.83-8.4,26.21,26.21,0,0,0,2.86-12.48,25.87,25.87,0,0,0-2.86-12.32A21.06,21.06,0,0,0,263.43,98a20.82,20.82,0,0,0-19.11,11.44Zm71.76,51h17.05V50.54H316.08Zm106-40.66c0,1-.06,2.22-.16,3.48a34.61,34.61,0,0,1-.66,4.17l-.25,1.18H363.59a23.8,23.8,0,0,0,2.13,5.68,20.57,20.57,0,0,0,8.3,8.44,25.51,25.51,0,0,0,12.54,3,28,28,0,0,0,10.89-2.07,22.33,22.33,0,0,0,8.41-6.14l1.06-1.24,11.18,11.36-.92,1a37.76,37.76,0,0,1-13.65,9.91,42.9,42.9,0,0,1-17,3.4,41.17,41.17,0,0,1-20.8-5.27,39.57,39.57,0,0,1-14.52-14.35,42.23,42.23,0,0,1-.08-41,39.06,39.06,0,0,1,34.46-19.63,36.59,36.59,0,0,1,18.86,4.89,34.26,34.26,0,0,1,13,13.53A40.94,40.94,0,0,1,422.08,119.78Zm-16.94-5.87a22.52,22.52,0,0,0-2-6,18.09,18.09,0,0,0-6.93-7.5,21,21,0,0,0-10.93-2.68,23.79,23.79,0,0,0-11.9,2.92,20,20,0,0,0-7.84,8.14,22.68,22.68,0,0,0-1.94,5.14Z"/><path d="M489.45,53.3l-6.24,14.78a16.69,16.69,0,0,0-4.92-.73A16.89,16.89,0,0,0,462,79.75a15,15,0,0,0-.42,3.57V161c0,.25,0,.49,0,.73a32.54,32.54,0,0,1-1,7.51.27.27,0,0,0,0,.12,33,33,0,0,1-30.93,24.51h-.88a32.77,32.77,0,0,1-11.16-1.95l6.24-14.78a16.69,16.69,0,0,0,4.92.73A16.9,16.9,0,0,0,445,165.54a15.61,15.61,0,0,0,.44-3.7V84.23c0-.31,0-.61,0-.91a32.8,32.8,0,0,1,32.17-32h.69A32.77,32.77,0,0,1,489.45,53.3Z"/><path d="M143.43,68.3H105.86a32.26,32.26,0,0,1,3,7.57.27.27,0,0,0,0,.12,32.16,32.16,0,0,1,1,7.33c0,.3,0,.6,0,.91v77.61a15.37,15.37,0,0,0,.42,3.61,16.89,16.89,0,0,0,16.27,12.4,16.69,16.69,0,0,0,4.92-.73l6.24,14.78a32.77,32.77,0,0,1-11.16,1.95H126a32.07,32.07,0,0,1-31.15-24.64,32.54,32.54,0,0,1-1-7.51c0-.24,0-.48,0-.73V83.32a15.28,15.28,0,0,0-.44-3.66A16.89,16.89,0,0,0,85,69.31a8.61,8.61,0,0,0-4-1H50.54v-17h92.89Z"/><circle cx="131.93" cy="185.36" r="11.5"/><circle cx="422.56" cy="184.36" r="11.5"/></svg>