<svg id="Livello_1" data-name="Livello 1" xmlns="http://www.w3.org/2000/svg" xmlns:xlink="http://www.w3.org/1999/xlink" viewBox="0 0 539.99 274.8"><defs><style>.cls-1{fill:url(#Sfumatura_senza_nome_41);}.cls-2{fill:url(#Sfumatura_senza_nome_41-2);}</style><linearGradient id="Sfumatura_senza_nome_41" x1="527.55" y1="16.24" x2="419.95" y2="171.66" gradientUnits="userSpaceOnUse"><stop offset="0.13" stop-opacity="0"/><stop offset="0.77"/></linearGradient><linearGradient id="Sfumatura_senza_nome_41-2" x1="50.73" y1="4.95" x2="139.45" y2="144.64" xlink:href="#Sfumatura_senza_nome_41"/></defs><title>tuples-nero-gradiente</title><polygon points="186.16 211.36 191.32 211.36 191.32 224.05 193.41 224.05 193.41 211.36 198.57 211.36 198.57 209.57 186.16 209.57 186.16 211.36"/><path d="M209.16,217.24a3.76,3.76,0,0,0,2.24-3.58,3.84,3.84,0,0,0-.58-2.11,4,4,0,0,0-1.66-1.45,5.72,5.72,0,0,0-2.53-.53H201v14.48h2.07v-6.3h1.34l5.38,6.3h2.61L207,217.73A5.65,5.65,0,0,0,209.16,217.24Zm-6.06-6h3.47a2.81,2.81,0,0,1,2,.69,2.28,2.28,0,0,1,.71,1.73,2.22,2.22,0,0,1-.71,1.75,3,3,0,0,1-2,.65H203.1Z"/><path d="M224,218.67a3.78,3.78,0,0,1-.49,2,3.39,3.39,0,0,1-1.34,1.29,4,4,0,0,1-1.95.46,4.08,4.08,0,0,1-2-.46,3.43,3.43,0,0,1-1.38-1.29,3.83,3.83,0,0,1-.5-2v-9.08h-2.09v9.12a5.33,5.33,0,0,0,.78,2.85,5.64,5.64,0,0,0,2.12,2,6.23,6.23,0,0,0,3,.73,6,6,0,0,0,3-.73,5.61,5.61,0,0,0,2.09-2,5.35,5.35,0,0,0,.77-2.84v-9.14H224Z"/><path d="M237.28,217a6.15,6.15,0,0,0-1.45-.79c-.53-.21-1.06-.4-1.59-.58a11.12,11.12,0,0,1-1.46-.57,3.53,3.53,0,0,1-1.07-.76,1.71,1.71,0,0,1-.4-1.18,1.64,1.64,0,0,1,.72-1.43,3.33,3.33,0,0,1,2-.51,4.09,4.09,0,0,1,1.79.37,4.88,4.88,0,0,1,1.46,1.13l1.4-1.34a5.49,5.49,0,0,0-1.93-1.45,6.23,6.23,0,0,0-2.68-.55,6.15,6.15,0,0,0-2.45.47,4,4,0,0,0-1.71,1.33,3.48,3.48,0,0,0-.63,2.1,3.76,3.76,0,0,0,.4,1.85,3.34,3.34,0,0,0,1.06,1.18,7.21,7.21,0,0,0,1.46.76c.53.2,1.06.39,1.58.55a10.19,10.19,0,0,1,1.45.58,3.08,3.08,0,0,1,1.07.82,2,2,0,0,1,.41,1.32,1.78,1.78,0,0,1-.83,1.54,3.77,3.77,0,0,1-2.18.56,5,5,0,0,1-2.33-.49,4.85,4.85,0,0,1-1.67-1.45l-1.41,1.34a6.43,6.43,0,0,0,5.32,2.44,6,6,0,0,0,3.79-1.09,3.58,3.58,0,0,0,1.39-3,4,4,0,0,0-.4-1.91A3.58,3.58,0,0,0,237.28,217Z"/><polygon points="239.52 211.36 244.69 211.36 244.69 224.05 246.77 224.05 246.77 211.36 251.94 211.36 251.94 209.57 239.52 209.57 239.52 211.36"/><polygon points="266.88 220.52 263.27 209.57 261.78 209.57 258.18 220.49 254.53 209.57 252.46 209.57 257.43 224.05 258.92 224.05 262.52 213.14 266.15 224.05 267.62 224.05 272.59 209.57 270.54 209.57 266.88 220.52"/><path d="M286.65,211.51a7.73,7.73,0,0,0-2.45-1.59,8.42,8.42,0,0,0-6,0,7.52,7.52,0,0,0-4.08,4,7.45,7.45,0,0,0,0,5.81,7.6,7.6,0,0,0,4.11,4,8,8,0,0,0,3,.57,7.85,7.85,0,0,0,3-.57,7.77,7.77,0,0,0,2.44-1.6,7.53,7.53,0,0,0,1.63-2.38,7.36,7.36,0,0,0,0-5.82A7.29,7.29,0,0,0,286.65,211.51Zm-.63,8.17a5.2,5.2,0,0,1-2,2,5.64,5.64,0,0,1-2.87.72A5.79,5.79,0,0,1,279,222a5.17,5.17,0,0,1-1.76-1.15,5.23,5.23,0,0,1-1.14-1.78,6.07,6.07,0,0,1-.41-2.24,5.75,5.75,0,0,1,.71-2.88,5.13,5.13,0,0,1,2-2,5.61,5.61,0,0,1,2.87-.71,6,6,0,0,1,2.24.4,5.25,5.25,0,0,1,1.75,1.16,5.18,5.18,0,0,1,1.16,1.77,5.89,5.89,0,0,1,.4,2.22A5.73,5.73,0,0,1,286,219.68Z"/><path d="M299.85,217.24a3.76,3.76,0,0,0,2.24-3.58,3.84,3.84,0,0,0-.58-2.11,4,4,0,0,0-1.66-1.45,5.72,5.72,0,0,0-2.53-.53h-5.6v14.48h2.07v-6.3h1.34l5.38,6.3h2.61l-5.48-6.32A5.65,5.65,0,0,0,299.85,217.24Zm-6.06-6h3.47a2.81,2.81,0,0,1,2,.69,2.28,2.28,0,0,1,.71,1.73,2.22,2.22,0,0,1-.71,1.75,3,3,0,0,1-2.05.65h-3.45Z"/><polygon points="303.06 211.36 308.22 211.36 308.22 224.05 310.31 224.05 310.31 211.36 315.47 211.36 315.47 209.57 303.06 209.57 303.06 211.36"/><polygon points="327.77 215.66 320 215.66 320 209.57 317.93 209.57 317.93 224.05 320 224.05 320 217.46 327.77 217.46 327.77 224.05 329.84 224.05 329.84 209.57 327.77 209.57 327.77 215.66"/><polygon points="343.28 209.57 338.97 215.82 334.67 209.57 332.25 209.57 337.92 217.69 337.92 224.05 339.99 224.05 339.99 217.6 345.63 209.57 343.28 209.57"/><path d="M356.49,209.57l-6.26,14.48h2.21l1.39-3.28h6.75l1.38,3.28h2.24L358,209.57Zm-1.94,9.49,2.66-6.32,2.65,6.32Z"/><rect x="366.48" y="209.57" width="2.07" height="14.48"/><path d="M192.33,84.07h17v44.58a36.16,36.16,0,0,1-4.25,17.73,29.88,29.88,0,0,1-11.82,11.9,34.82,34.82,0,0,1-17.11,4.17A35.35,35.35,0,0,1,159,158.29a29.78,29.78,0,0,1-11.9-11.91,36.11,36.11,0,0,1-4.25-17.73V84.07h17v44a23,23,0,0,0,2,9.89,13.46,13.46,0,0,0,5.56,6.14,17.32,17.32,0,0,0,8.77,2.14c5.11,0,9-1.55,11.83-4.73s4.3-7.71,4.3-13.44Zm106,18.27a45.14,45.14,0,0,1,0,40.75,37.52,37.52,0,0,1-13.41,14.38,35.78,35.78,0,0,1-19.13,5.29,34.14,34.14,0,0,1-15.9-3.68,29.67,29.67,0,0,1-7.56-5.5v40.68H225.26V84.07h17.05v7.72a30.94,30.94,0,0,1,7.72-5.6,33.9,33.9,0,0,1,15.74-3.68,35.39,35.39,0,0,1,19.14,5.38A38,38,0,0,1,298.31,102.34Zm-54,7.88a29.3,29.3,0,0,0-.07,24.85,20.48,20.48,0,0,0,7.71,8.37,21.83,21.83,0,0,0,30.83-8.4,26.24,26.24,0,0,0,2.86-12.48,25.87,25.87,0,0,0-2.86-12.32,21.06,21.06,0,0,0-19.36-11.46,20.82,20.82,0,0,0-19.11,11.44Zm71.76,51h17.05V51.3H316.08Zm106-40.66c0,1-.06,2.22-.16,3.48a34.61,34.61,0,0,1-.66,4.17l-.25,1.18H363.59a23.8,23.8,0,0,0,2.13,5.68,20.57,20.57,0,0,0,8.3,8.44,25.51,25.51,0,0,0,12.54,3,28,28,0,0,0,10.89-2.07,22.33,22.33,0,0,0,8.41-6.14l1.06-1.24,11.18,11.36-.92,1.05a37.76,37.76,0,0,1-13.65,9.91,42.9,42.9,0,0,1-17,3.4,41.17,41.17,0,0,1-20.8-5.27,39.57,39.57,0,0,1-14.52-14.35,42.23,42.23,0,0,1-.08-41,39.06,39.06,0,0,1,34.46-19.63,36.59,36.59,0,0,1,18.86,4.89,34.26,34.26,0,0,1,13,13.53A40.94,40.94,0,0,1,422.08,120.54Zm-16.94-5.87a22.52,22.52,0,0,0-2-6,18.09,18.09,0,0,0-6.93-7.5,21,21,0,0,0-10.93-2.68,23.79,23.79,0,0,0-11.9,2.92,20,20,0,0,0-7.84,8.14,22.68,22.68,0,0,0-1.94,5.14Z"/><path class="cls-1" d="M489.45,54.05l-6.24,14.78a16.69,16.69,0,0,0-4.92-.73A16.89,16.89,0,0,0,462,80.5a15,15,0,0,0-.42,3.57v77.65c0,.25,0,.49,0,.73a32.54,32.54,0,0,1-1,7.51.27.27,0,0,0,0,.12,33,33,0,0,1-30.93,24.51h-.88a32.77,32.77,0,0,1-11.16-1.95l6.24-14.78a16.69,16.69,0,0,0,4.92.73A16.9,16.9,0,0,0,445,166.29a15.61,15.61,0,0,0,.44-3.7V85c0-.31,0-.61,0-.91a32.8,32.8,0,0,1,32.17-32h.69A32.77,32.77,0,0,1,489.45,54.05Z"/><path class="cls-2" d="M143.43,69.05H105.86a32.26,32.26,0,0,1,3,7.57.27.27,0,0,0,0,.12,32.16,32.16,0,0,1,1,7.33c0,.3,0,.6,0,.91v77.61a15.37,15.37,0,0,0,.42,3.61,16.89,16.89,0,0,0,16.27,12.4,16.69,16.69,0,0,0,4.92-.73l6.24,14.78a32.77,32.77,0,0,1-11.16,1.95H126A32.07,32.07,0,0,1,94.83,170a32.54,32.54,0,0,1-1-7.51c0-.24,0-.48,0-.73V84.07a15.28,15.28,0,0,0-.44-3.66A16.89,16.89,0,0,0,85,70.06a8.61,8.61,0,0,0-4-1H50.54v-17h92.89Z"/><circle cx="131.93" cy="186.12" r="11.5"/><circle cx="422.56" cy="185.12" r="11.5"/></svg>