<svg id="Livello_1" data-name="Livello 1" xmlns="http://www.w3.org/2000/svg" xmlns:xlink="http://www.w3.org/1999/xlink" viewBox="0 0 539.99 274.28"><defs><style>.cls-1{fill:#fff;}.cls-2{fill:url(#Sfumatura_senza_nome_29);}.cls-3{fill:url(#Sfumatura_senza_nome_29-2);}</style><linearGradient id="Sfumatura_senza_nome_29" x1="503.15" y1="10.69" x2="433.71" y2="167.08" gradientUnits="userSpaceOnUse"><stop offset="0.13" stop-color="#fff" stop-opacity="0"/><stop offset="0.18" stop-color="#fff" stop-opacity="0.03"/><stop offset="0.27" stop-color="#fff" stop-opacity="0.1"/><stop offset="0.36" stop-color="#fff" stop-opacity="0.21"/><stop offset="0.46" stop-color="#fff" stop-opacity="0.38"/><stop offset="0.58" stop-color="#fff" stop-opacity="0.59"/><stop offset="0.7" stop-color="#fff" stop-opacity="0.84"/><stop offset="0.77" stop-color="#fff"/></linearGradient><linearGradient id="Sfumatura_senza_nome_29-2" x1="54.58" y1="-10.36" x2="140.98" y2="152.59" xlink:href="#Sfumatura_senza_nome_29"/></defs><title>tuples-bianco-gradiente</title><polygon class="cls-1" points="185.8 210.64 190.96 210.64 190.96 223.33 193.05 223.33 193.05 210.64 198.21 210.64 198.21 208.84 185.8 208.84 185.8 210.64"/><path class="cls-1" d="M208.8,216.51a3.82,3.82,0,0,0,1.66-1.43,3.91,3.91,0,0,0,.58-2.15,3.81,3.81,0,0,0-.58-2.1,3.93,3.93,0,0,0-1.66-1.45,5.58,5.58,0,0,0-2.53-.54h-5.6v14.49h2.07V217h1.34l5.38,6.31h2.61L206.59,217A5.48,5.48,0,0,0,208.8,216.51Zm-6.06-6h3.47a2.81,2.81,0,0,1,2,.69A2.3,2.3,0,0,1,209,213a2.23,2.23,0,0,1-.71,1.75,3,3,0,0,1-2.05.65h-3.45Z"/><path class="cls-1" d="M223.67,217.94a3.75,3.75,0,0,1-.49,2,3.49,3.49,0,0,1-1.34,1.3,4.06,4.06,0,0,1-1.94.46,4.21,4.21,0,0,1-2-.46,3.43,3.43,0,0,1-1.37-1.3,3.69,3.69,0,0,1-.51-2v-9.08H214V218a5.3,5.3,0,0,0,.78,2.85,5.66,5.66,0,0,0,2.12,2,6.35,6.35,0,0,0,3,.73,6.21,6.21,0,0,0,3-.73,5.6,5.6,0,0,0,2.08-2,5.33,5.33,0,0,0,.77-2.84v-9.14h-2.09Z"/><path class="cls-1" d="M236.92,216.29a6.53,6.53,0,0,0-1.45-.79q-.79-.31-1.59-.57a12.69,12.69,0,0,1-1.46-.58,3.37,3.37,0,0,1-1.07-.76,1.69,1.69,0,0,1-.4-1.18,1.66,1.66,0,0,1,.72-1.43,3.35,3.35,0,0,1,2-.51,4.09,4.09,0,0,1,1.79.38,4.84,4.84,0,0,1,1.46,1.12l1.4-1.33a5.4,5.4,0,0,0-1.93-1.45,6.66,6.66,0,0,0-5.13-.09,4,4,0,0,0-1.71,1.34,3.48,3.48,0,0,0-.63,2.1,3.72,3.72,0,0,0,.4,1.84,3.25,3.25,0,0,0,1.06,1.18,7.52,7.52,0,0,0,1.46.77c.53.2,1.06.38,1.58.55a11,11,0,0,1,1.45.57,3.11,3.11,0,0,1,1.07.83,2,2,0,0,1,.41,1.31,1.79,1.79,0,0,1-.83,1.55,3.85,3.85,0,0,1-2.18.56,4.57,4.57,0,0,1-4-1.94l-1.41,1.33a6.94,6.94,0,0,0,2.26,1.82,6.85,6.85,0,0,0,3.06.63,6,6,0,0,0,3.79-1.09,3.58,3.58,0,0,0,1.39-3,4,4,0,0,0-.4-1.91A3.62,3.62,0,0,0,236.92,216.29Z"/><polygon class="cls-1" points="239.16 210.64 244.33 210.64 244.33 223.33 246.41 223.33 246.41 210.64 251.58 210.64 251.58 208.84 239.16 208.84 239.16 210.64"/><polygon class="cls-1" points="266.52 219.8 262.91 208.84 261.42 208.84 257.82 219.76 254.17 208.84 252.1 208.84 257.07 223.33 258.56 223.33 262.17 212.42 265.79 223.33 267.26 223.33 272.23 208.84 270.18 208.84 266.52 219.8"/><path class="cls-1" d="M286.29,210.78a7.53,7.53,0,0,0-2.45-1.58,8.29,8.29,0,0,0-6,0,7.28,7.28,0,0,0-2.44,1.58,7.75,7.75,0,0,0-1.64,2.37,7.45,7.45,0,0,0,0,5.81,7.6,7.6,0,0,0,4.11,4,8,8,0,0,0,3,.58,7.86,7.86,0,0,0,3-.58,7.44,7.44,0,0,0,2.44-1.6,7.68,7.68,0,0,0,1.64-2.37,7.5,7.5,0,0,0,0-5.83A7.7,7.7,0,0,0,286.29,210.78Zm-.63,8.17a5.14,5.14,0,0,1-2,2,5.7,5.7,0,0,1-2.88.72,5.79,5.79,0,0,1-2.23-.42,5.19,5.19,0,0,1-1.76-1.16,5.09,5.09,0,0,1-1.14-1.77,6.12,6.12,0,0,1-.41-2.25,5.8,5.8,0,0,1,.71-2.88,5.27,5.27,0,0,1,2-2,5.71,5.71,0,0,1,2.87-.71,6,6,0,0,1,2.24.41,5.24,5.24,0,0,1,1.76,1.16,5.37,5.37,0,0,1,1.15,1.76,6,6,0,0,1,.41,2.22A5.71,5.71,0,0,1,285.66,219Z"/><path class="cls-1" d="M299.49,216.51a3.82,3.82,0,0,0,1.66-1.43,3.91,3.91,0,0,0,.58-2.15,3.81,3.81,0,0,0-.58-2.1,3.93,3.93,0,0,0-1.66-1.45,5.58,5.58,0,0,0-2.53-.54h-5.6v14.49h2.07V217h1.34l5.38,6.31h2.61L297.28,217A5.48,5.48,0,0,0,299.49,216.51Zm-6.06-6h3.47a2.81,2.81,0,0,1,2,.69,2.31,2.31,0,0,1,.72,1.74,2.24,2.24,0,0,1-.72,1.75,3,3,0,0,1-2.05.65h-3.45Z"/><polygon class="cls-1" points="302.7 210.64 307.86 210.64 307.86 223.33 309.95 223.33 309.95 210.64 315.11 210.64 315.11 208.84 302.7 208.84 302.7 210.64"/><polygon class="cls-1" points="327.41 214.94 319.64 214.94 319.64 208.84 317.57 208.84 317.57 223.33 319.64 223.33 319.64 216.73 327.41 216.73 327.41 223.33 329.48 223.33 329.48 208.84 327.41 208.84 327.41 214.94"/><polygon class="cls-1" points="342.93 208.84 338.61 215.09 334.31 208.84 331.9 208.84 337.56 216.97 337.56 223.33 339.63 223.33 339.63 216.88 345.28 208.84 342.93 208.84"/><path class="cls-1" d="M356.13,208.84l-6.26,14.49h2.22l1.38-3.28h6.75l1.38,3.28h2.24l-6.22-14.49Zm-1.94,9.5,2.66-6.32,2.66,6.32Z"/><rect class="cls-1" x="366.12" y="208.84" width="2.07" height="14.48"/><path class="cls-1" d="M192.33,83.35h17v44.57a36.17,36.17,0,0,1-4.25,17.74,29.88,29.88,0,0,1-11.82,11.9,37.35,37.35,0,0,1-34.3,0,29.76,29.76,0,0,1-11.9-11.9,36.17,36.17,0,0,1-4.25-17.74V83.35h17v44a23.08,23.08,0,0,0,2,9.89,13.44,13.44,0,0,0,5.56,6.13,17.32,17.32,0,0,0,8.77,2.14c5.11,0,9-1.55,11.83-4.73s4.3-7.7,4.3-13.43Zm106,18.27a45.12,45.12,0,0,1,0,40.74,37.38,37.38,0,0,1-13.41,14.38,35.7,35.7,0,0,1-19.13,5.3,34.26,34.26,0,0,1-15.9-3.68,30.15,30.15,0,0,1-7.56-5.5v40.67H225.26V83.35h17.05v7.72a30.69,30.69,0,0,1,7.72-5.6,33.9,33.9,0,0,1,15.74-3.68,35.39,35.39,0,0,1,19.14,5.38A38,38,0,0,1,298.31,101.62Zm-54,7.88a29.28,29.28,0,0,0-.07,24.84,20.45,20.45,0,0,0,7.71,8.38,21.83,21.83,0,0,0,11.47,3.05,21.08,21.08,0,0,0,19.36-11.45,26.24,26.24,0,0,0,2.86-12.48,25.91,25.91,0,0,0-2.86-12.33,21.11,21.11,0,0,0-19.36-11.46,20.85,20.85,0,0,0-19.11,11.45Zm71.76,51h17.05V50.57H316.08Zm106-40.67c0,1-.06,2.22-.16,3.48a34.61,34.61,0,0,1-.66,4.17l-.25,1.18H363.59a23.8,23.8,0,0,0,2.13,5.68,20.57,20.57,0,0,0,8.3,8.44,25.51,25.51,0,0,0,12.54,3,28,28,0,0,0,10.89-2.07,22.33,22.33,0,0,0,8.41-6.14l1.06-1.24,11.18,11.36-.92,1a37.76,37.76,0,0,1-13.65,9.91,42.9,42.9,0,0,1-17,3.4,41.17,41.17,0,0,1-20.8-5.27,39.57,39.57,0,0,1-14.52-14.35,42.23,42.23,0,0,1-.08-41,39.06,39.06,0,0,1,34.46-19.63,36.59,36.59,0,0,1,18.86,4.89,34.26,34.26,0,0,1,13,13.53A40.94,40.94,0,0,1,422.08,119.81Zm-16.94-5.87a22.52,22.52,0,0,0-2-6,18.09,18.09,0,0,0-6.93-7.5,21,21,0,0,0-10.93-2.68,23.79,23.79,0,0,0-11.9,2.92,20,20,0,0,0-7.84,8.14,22.68,22.68,0,0,0-1.94,5.14Z"/><path class="cls-2" d="M489.45,53.33l-6.24,14.78a16.69,16.69,0,0,0-4.92-.73A16.89,16.89,0,0,0,462,79.78a15,15,0,0,0-.42,3.57V161c0,.25,0,.49,0,.73a32.54,32.54,0,0,1-1,7.51.27.27,0,0,0,0,.12,33,33,0,0,1-30.93,24.51h-.88a32.77,32.77,0,0,1-11.16-1.95l6.24-14.78a16.69,16.69,0,0,0,4.92.73A16.9,16.9,0,0,0,445,165.57a15.61,15.61,0,0,0,.44-3.7V84.26c0-.31,0-.61,0-.91a32.8,32.8,0,0,1,32.17-32h.69A32.77,32.77,0,0,1,489.45,53.33Z"/><path class="cls-3" d="M143.43,68.33H105.86a32.26,32.26,0,0,1,3,7.57.27.27,0,0,0,0,.12,32.16,32.16,0,0,1,1,7.33c0,.3,0,.6,0,.91v77.61a15.37,15.37,0,0,0,.42,3.61,16.89,16.89,0,0,0,16.27,12.4,16.69,16.69,0,0,0,4.92-.73l6.24,14.78a32.77,32.77,0,0,1-11.16,1.95H126a32.07,32.07,0,0,1-31.15-24.64,32.54,32.54,0,0,1-1-7.51c0-.24,0-.48,0-.73V83.35a15.28,15.28,0,0,0-.44-3.66A16.89,16.89,0,0,0,85,69.34a8.61,8.61,0,0,0-4-1H50.54v-17h92.89Z"/><circle class="cls-1" cx="131.93" cy="185.4" r="11.5"/><circle class="cls-1" cx="422.56" cy="184.4" r="11.5"/></svg>