<svg id="Livello_1" data-name="Livello 1" xmlns="http://www.w3.org/2000/svg" xmlns:xlink="http://www.w3.org/1999/xlink" viewBox="0 0 539.99 273.42"><defs><style>.cls-1{fill:#002252;}.cls-2{fill:url(#Sfumatura_senza_nome_22);}.cls-3{fill:url(#Sfumatura_senza_nome_22-2);}</style><linearGradient id="Sfumatura_senza_nome_22" x1="481.39" y1="162.19" x2="423.05" y2="83.01" gradientUnits="userSpaceOnUse"><stop offset="0.13" stop-color="#002252"/><stop offset="0.25" stop-color="#042557"/><stop offset="0.39" stop-color="#112e65"/><stop offset="0.55" stop-color="#263c7c"/><stop offset="0.71" stop-color="#43509d"/><stop offset="0.77" stop-color="#5059ab"/></linearGradient><linearGradient id="Sfumatura_senza_nome_22-2" x1="165.3" y1="174.27" x2="65.81" y2="39.25" xlink:href="#Sfumatura_senza_nome_22"/></defs><title>tuples-colori</title><polygon class="cls-1" points="185.8 209.81 190.96 209.81 190.96 222.5 193.05 222.5 193.05 209.81 198.21 209.81 198.21 208.02 185.8 208.02 185.8 209.81"/><path class="cls-1" d="M208.8,215.69a3.76,3.76,0,0,0,2.24-3.58,3.84,3.84,0,0,0-.58-2.11,4.07,4.07,0,0,0-1.66-1.45,5.72,5.72,0,0,0-2.53-.53h-5.6V222.5h2.07v-6.3h1.34l5.38,6.3h2.61l-5.48-6.32A5.65,5.65,0,0,0,208.8,215.69Zm-6.06-6h3.47a2.81,2.81,0,0,1,2,.69,2.29,2.29,0,0,1,.71,1.73,2.22,2.22,0,0,1-.71,1.75,3,3,0,0,1-2.06.65h-3.44Z"/><path class="cls-1" d="M223.67,217.12a3.78,3.78,0,0,1-.49,2,3.39,3.39,0,0,1-1.34,1.29,4,4,0,0,1-2,.46,4.08,4.08,0,0,1-2-.46,3.43,3.43,0,0,1-1.38-1.29,3.83,3.83,0,0,1-.5-2V208H214v9.12a5.3,5.3,0,0,0,.78,2.85,5.64,5.64,0,0,0,2.12,2,6.23,6.23,0,0,0,3,.73,6,6,0,0,0,3-.73,5.61,5.61,0,0,0,2.09-2,5.35,5.35,0,0,0,.77-2.84V208h-2.09Z"/><path class="cls-1" d="M236.92,215.47a6.15,6.15,0,0,0-1.45-.79c-.53-.21-1.06-.4-1.59-.58a11.12,11.12,0,0,1-1.46-.57,3.37,3.37,0,0,1-1.07-.76,1.71,1.71,0,0,1-.41-1.18,1.65,1.65,0,0,1,.73-1.43,3.32,3.32,0,0,1,2-.51,4.11,4.11,0,0,1,1.8.37,4.88,4.88,0,0,1,1.46,1.13l1.4-1.34a5.49,5.49,0,0,0-1.93-1.45,6.27,6.27,0,0,0-2.68-.55,6.15,6.15,0,0,0-2.45.47,4,4,0,0,0-1.71,1.33,3.48,3.48,0,0,0-.63,2.1,3.87,3.87,0,0,0,.39,1.85,3.46,3.46,0,0,0,1.07,1.18,7.21,7.21,0,0,0,1.46.76c.53.2,1.06.39,1.58.55a10.19,10.19,0,0,1,1.45.58,3.08,3.08,0,0,1,1.07.82,2,2,0,0,1,.41,1.32,1.78,1.78,0,0,1-.83,1.54,3.77,3.77,0,0,1-2.18.56,5,5,0,0,1-2.33-.49,4.85,4.85,0,0,1-1.67-1.45l-1.41,1.34a6.43,6.43,0,0,0,5.32,2.44,6.05,6.05,0,0,0,3.79-1.08,3.61,3.61,0,0,0,1.39-3,4,4,0,0,0-.4-1.91A3.69,3.69,0,0,0,236.92,215.47Z"/><polygon class="cls-1" points="239.16 209.81 244.32 209.81 244.32 222.5 246.41 222.5 246.41 209.81 251.57 209.81 251.57 208.02 239.16 208.02 239.16 209.81"/><polygon class="cls-1" points="266.52 218.97 262.91 208.02 261.42 208.02 257.82 218.94 254.17 208.02 252.1 208.02 257.07 222.5 258.56 222.5 262.17 211.59 265.79 222.5 267.26 222.5 272.23 208.02 270.18 208.02 266.52 218.97"/><path class="cls-1" d="M286.29,210a7.73,7.73,0,0,0-2.45-1.59,8.45,8.45,0,0,0-6,0,7.42,7.42,0,0,0-2.43,1.59,7.52,7.52,0,0,0-1.64,2.37,7.45,7.45,0,0,0,0,5.81,7.6,7.6,0,0,0,4.11,4,8,8,0,0,0,3,.57,7.85,7.85,0,0,0,3-.57,7.77,7.77,0,0,0,2.44-1.6,7.42,7.42,0,0,0,1.63-2.38,7.36,7.36,0,0,0,0-5.82A7.29,7.29,0,0,0,286.29,210Zm-.63,8.17a5.2,5.2,0,0,1-2,2,5.64,5.64,0,0,1-2.87.72,5.79,5.79,0,0,1-2.23-.42,5.17,5.17,0,0,1-1.76-1.15,5.23,5.23,0,0,1-1.14-1.78,5.87,5.87,0,0,1-.41-2.24,5.75,5.75,0,0,1,.71-2.88,5.13,5.13,0,0,1,2-2,5.61,5.61,0,0,1,2.87-.71,6,6,0,0,1,2.24.4,5.25,5.25,0,0,1,1.75,1.16A5.18,5.18,0,0,1,286,213a5.89,5.89,0,0,1,.4,2.22A5.73,5.73,0,0,1,285.66,218.13Z"/><path class="cls-1" d="M299.49,215.69a3.76,3.76,0,0,0,2.24-3.58,3.84,3.84,0,0,0-.58-2.11,4.07,4.07,0,0,0-1.66-1.45A5.72,5.72,0,0,0,297,208h-5.6V222.5h2.07v-6.3h1.34l5.38,6.3h2.61l-5.48-6.32A5.65,5.65,0,0,0,299.49,215.69Zm-6.06-6h3.47a2.81,2.81,0,0,1,2,.69,2.29,2.29,0,0,1,.71,1.73,2.22,2.22,0,0,1-.71,1.75,3,3,0,0,1-2.05.65h-3.45Z"/><polygon class="cls-1" points="302.7 209.81 307.86 209.81 307.86 222.5 309.95 222.5 309.95 209.81 315.11 209.81 315.11 208.02 302.7 208.02 302.7 209.81"/><polygon class="cls-1" points="327.41 214.11 319.64 214.11 319.64 208.02 317.57 208.02 317.57 222.5 319.64 222.5 319.64 215.91 327.41 215.91 327.41 222.5 329.48 222.5 329.48 208.02 327.41 208.02 327.41 214.11"/><polygon class="cls-1" points="342.92 208.02 338.61 214.27 334.31 208.02 331.89 208.02 337.56 216.14 337.56 222.5 339.63 222.5 339.63 216.05 345.27 208.02 342.92 208.02"/><path class="cls-1" d="M356.13,208l-6.26,14.48h2.21l1.39-3.27h6.75l1.38,3.27h2.24L357.62,208Zm-1.94,9.49,2.66-6.32,2.65,6.32Z"/><rect class="cls-1" x="366.12" y="208.02" width="2.07" height="14.48"/><path class="cls-1" d="M192.33,82.53h17V127.1a36.16,36.16,0,0,1-4.25,17.73,29.94,29.94,0,0,1-11.82,11.9,34.82,34.82,0,0,1-17.11,4.17A35.35,35.35,0,0,1,159,156.74a29.78,29.78,0,0,1-11.9-11.91,36.11,36.11,0,0,1-4.25-17.73V82.53h17v43.94a23,23,0,0,0,2,9.89,13.46,13.46,0,0,0,5.56,6.14,17.32,17.32,0,0,0,8.77,2.14c5.11,0,9-1.55,11.83-4.73s4.3-7.71,4.3-13.44Zm106,18.27a45.12,45.12,0,0,1,0,40.74,37.52,37.52,0,0,1-13.41,14.38,35.8,35.8,0,0,1-19.13,5.29,34.14,34.14,0,0,1-15.9-3.68,29.9,29.9,0,0,1-7.57-5.5v40.68h-17V82.53h17v7.71a31.31,31.31,0,0,1,7.72-5.6A33.94,33.94,0,0,1,265.77,81a35.39,35.39,0,0,1,19.14,5.38A38.08,38.08,0,0,1,298.31,100.8Zm-54,7.87a29.3,29.3,0,0,0-.07,24.85,20.42,20.42,0,0,0,7.71,8.37,21.81,21.81,0,0,0,30.83-8.4A26.24,26.24,0,0,0,285.65,121a25.87,25.87,0,0,0-2.86-12.32,21.06,21.06,0,0,0-19.36-11.46,20.82,20.82,0,0,0-19.11,11.44Zm71.76,51h17.05v-109H316.08Zm106-40.66c0,1.05-.06,2.22-.16,3.48a34.61,34.61,0,0,1-.66,4.17l-.25,1.18H363.59a23.8,23.8,0,0,0,2.13,5.68,20.57,20.57,0,0,0,8.3,8.44,25.51,25.51,0,0,0,12.54,3,28,28,0,0,0,10.89-2.07,22.33,22.33,0,0,0,8.41-6.14l1.06-1.24,11.18,11.36-.92,1a37.76,37.76,0,0,1-13.65,9.91,42.9,42.9,0,0,1-17,3.4,41.17,41.17,0,0,1-20.8-5.27,39.57,39.57,0,0,1-14.52-14.35,42.23,42.23,0,0,1-.08-41A39.06,39.06,0,0,1,385.62,81a36.59,36.59,0,0,1,18.86,4.89,34.26,34.26,0,0,1,13,13.53A40.94,40.94,0,0,1,422.08,119Zm-16.94-5.87a22.52,22.52,0,0,0-2-6,18.09,18.09,0,0,0-6.93-7.5,21,21,0,0,0-10.93-2.68,23.79,23.79,0,0,0-11.9,2.92,20,20,0,0,0-7.84,8.14,22.68,22.68,0,0,0-1.94,5.14Z"/><path class="cls-2" d="M489.45,52.5l-6.24,14.78a16.69,16.69,0,0,0-4.92-.73A16.89,16.89,0,0,0,462,79a15,15,0,0,0-.42,3.57v77.65c0,.25,0,.49,0,.73a32.54,32.54,0,0,1-1,7.51.27.27,0,0,0,0,.12A33,33,0,0,1,429.6,193h-.54a10.91,10.91,0,0,1-2,1.08,11.5,11.5,0,1,1,4.72-17.37,16.91,16.91,0,0,0,13.15-12,15.61,15.61,0,0,0,.44-3.7V83.43c0-.31,0-.61,0-.91a32.8,32.8,0,0,1,32.17-32h.69A32.77,32.77,0,0,1,489.45,52.5Z"/><path class="cls-3" d="M143.43,67.5H105.86a32.26,32.26,0,0,1,3,7.57.27.27,0,0,0,0,.12,32.16,32.16,0,0,1,1,7.33c0,.3,0,.6,0,.91V161a15.37,15.37,0,0,0,.42,3.61,16.91,16.91,0,0,0,13.11,12.1,11.49,11.49,0,1,1,1.18,16.75c-.2-.16-.39-.33-.58-.51a32.07,32.07,0,0,1-29.28-24.58,32.54,32.54,0,0,1-1-7.51c0-.24,0-.48,0-.73V82.52a15.28,15.28,0,0,0-.44-3.66A16.89,16.89,0,0,0,85,68.51a8.61,8.61,0,0,0-4-1H50.54v-17h92.89Z"/></svg>