{
    "asset" : {
        "generator" : "Khronos glTF Blender I/O v1.1.46",
        "version" : "2.0"
    },
    "scene" : 0,
    "scenes" : [
        {
            "name" : "Scene",
            "nodes" : [
                0
            ]
        }
    ],
    "nodes" : [
        {
            "mesh" : 0,
            "name" : "truck",
            "rotation" : [
                0,
                0,
                0,
                -1
            ],
            "scale" : [
                1,
                0.7400000095367432,
                1.9700000286102295
            ],
            "translation" : [
                0.02597212791442871,
                0,
                0.05194275453686714
            ]
        }
    ],
    "materials" : [
        {
            "doubleSided" : true,
            "emissiveFactor" : [
                0,
                0,
                0
            ],
            "name" : "Material",
            "pbrMetallicRoughness" : {
                "baseColorFactor" : [
                    0.5814632773399353,
                    0.13617344200611115,
                    0,
                    1
                ],
                "metallicFactor" : 0,
                "roughnessFactor" : 0.4000000059604645
            }
        },
        {
            "doubleSided" : true,
            "emissiveFactor" : [
                0,
                0,
                0
            ],
            "name" : "windows.mat",
            "pbrMetallicRoughness" : {
                "baseColorFactor" : [
                    0.27212396264076233,
                    0.5844824314117432,
                    0.8000000715255737,
                    1
                ],
                "metallicFactor" : 0.49166667461395264,
                "roughnessFactor" : 0.5
            }
        },
        {
            "doubleSided" : true,
            "emissiveFactor" : [
                0,
                0,
                0
            ],
            "name" : "tire.mat",
            "pbrMetallicRoughness" : {
                "baseColorFactor" : [
                    0.007539941929280758,
                    0.00732786301523447,
                    0.008075881749391556,
                    1
                ],
                "metallicFactor" : 0,
                "roughnessFactor" : 0.5
            }
        }
    ],
    "meshes" : [
        {
            "name" : "Cube",
            "primitives" : [
                {
                    "attributes" : {
                        "POSITION" : 0,
                        "NORMAL" : 1,
                        "TEXCOORD_0" : 2
                    },
                    "indices" : 3,
                    "material" : 0
                },
                {
                    "attributes" : {
                        "POSITION" : 4,
                        "NORMAL" : 5,
                        "TEXCOORD_0" : 6
                    },
                    "indices" : 7,
                    "material" : 1
                },
                {
                    "attributes" : {
                        "POSITION" : 8,
                        "NORMAL" : 9,
                        "TEXCOORD_0" : 10
                    },
                    "indices" : 11,
                    "material" : 2
                }
            ]
        }
    ],
    "accessors" : [
        {
            "bufferView" : 0,
            "componentType" : 5126,
            "count" : 356,
            "max" : [
                8.42390251159668,
                3.686861753463745,
                1
            ],
            "min" : [
                -1,
                -1,
                -1
            ],
            "type" : "VEC3"
        },
        {
            "bufferView" : 1,
            "componentType" : 5126,
            "count" : 356,
            "type" : "VEC3"
        },
        {
            "bufferView" : 2,
            "componentType" : 5126,
            "count" : 356,
            "type" : "VEC2"
        },
        {
            "bufferView" : 3,
            "componentType" : 5123,
            "count" : 666,
            "type" : "SCALAR"
        },
        {
            "bufferView" : 4,
            "componentType" : 5126,
            "count" : 12,
            "max" : [
                4.189278602600098,
                3.424013376235962,
                0.9568532705307007
            ],
            "min" : [
                1.1213295459747314,
                1.32713782787323,
                -0.9612107872962952
            ],
            "type" : "VEC3"
        },
        {
            "bufferView" : 5,
            "componentType" : 5126,
            "count" : 12,
            "type" : "VEC3"
        },
        {
            "bufferView" : 6,
            "componentType" : 5126,
            "count" : 12,
            "type" : "VEC2"
        },
        {
            "bufferView" : 7,
            "componentType" : 5123,
            "count" : 18,
            "type" : "SCALAR"
        },
        {
            "bufferView" : 8,
            "componentType" : 5126,
            "count" : 768,
            "max" : [
                7.598864555358887,
                -0.08674561977386475,
                0.9740521311759949
            ],
            "min" : [
                -0.7108209133148193,
                -2.7902393341064453,
                -0.9532346725463867
            ],
            "type" : "VEC3"
        },
        {
            "bufferView" : 9,
            "componentType" : 5126,
            "count" : 768,
            "type" : "VEC3"
        },
        {
            "bufferView" : 10,
            "componentType" : 5126,
            "count" : 768,
            "type" : "VEC2"
        },
        {
            "bufferView" : 11,
            "componentType" : 5123,
            "count" : 1488,
            "type" : "SCALAR"
        }
    ],
    "bufferViews" : [
        {
            "buffer" : 0,
            "byteLength" : 4272,
            "byteOffset" : 0
        },
        {
            "buffer" : 0,
            "byteLength" : 4272,
            "byteOffset" : 4272
        },
        {
            "buffer" : 0,
            "byteLength" : 2848,
            "byteOffset" : 8544
        },
        {
            "buffer" : 0,
            "byteLength" : 1332,
            "byteOffset" : 11392
        },
        {
            "buffer" : 0,
            "byteLength" : 144,
            "byteOffset" : 12724
        },
        {
            "buffer" : 0,
            "byteLength" : 144,
            "byteOffset" : 12868
        },
        {
            "buffer" : 0,
            "byteLength" : 96,
            "byteOffset" : 13012
        },
        {
            "buffer" : 0,
            "byteLength" : 36,
            "byteOffset" : 13108
        },
        {
            "buffer" : 0,
            "byteLength" : 9216,
            "byteOffset" : 13144
        },
        {
            "buffer" : 0,
            "byteLength" : 9216,
            "byteOffset" : 22360
        },
        {
            "buffer" : 0,
            "byteLength" : 6144,
            "byteOffset" : 31576
        },
        {
            "buffer" : 0,
            "byteLength" : 2976,
            "byteOffset" : 37720
        }
    ],
    "buffers" : [
        {
            "byteLength" : 40696,
            "uri" : "data:application/octet-stream;base64,"
        }
    ]
}
