<?xml version="1.0" encoding="UTF-8" standalone="no"?>
<!-- Created with Inkscape (http://www.inkscape.org/) -->

<svg
   xmlns:dc="http://purl.org/dc/elements/1.1/"
   xmlns:cc="http://creativecommons.org/ns#"
   xmlns:rdf="http://www.w3.org/1999/02/22-rdf-syntax-ns#"
   xmlns:svg="http://www.w3.org/2000/svg"
   xmlns="http://www.w3.org/2000/svg"
   xmlns:sodipodi="http://sodipodi.sourceforge.net/DTD/sodipodi-0.dtd"
   xmlns:inkscape="http://www.inkscape.org/namespaces/inkscape"
   width="200mm"
   height="155mm"
   viewBox="0 0 200 155"
   version="1.1"
   id="svg8"
   inkscape:version="0.92.3 (2405546, 2018-03-11)"
   sodipodi:docname="iter_logo.svg">
  <defs
     id="defs2" />
  <sodipodi:namedview
     id="base"
     pagecolor="#ffffff"
     bordercolor="#666666"
     borderopacity="1.0"
     inkscape:pageopacity="0.0"
     inkscape:pageshadow="2"
     inkscape:zoom="0.98994949"
     inkscape:cx="299.73714"
     inkscape:cy="248.93352"
     inkscape:document-units="mm"
     inkscape:current-layer="layer1"
     showgrid="true"
     inkscape:snap-global="false"
     inkscape:window-width="1920"
     inkscape:window-height="967"
     inkscape:window-x="2560"
     inkscape:window-y="24"
     inkscape:window-maximized="1">
    <inkscape:grid
       type="xygrid"
       id="grid815" />
  </sodipodi:namedview>
  <metadata
     id="metadata5">
    <rdf:RDF>
      <cc:Work
         rdf:about="">
        <dc:format>image/svg+xml</dc:format>
        <dc:type
           rdf:resource="http://purl.org/dc/dcmitype/StillImage" />
        <dc:title></dc:title>
      </cc:Work>
    </rdf:RDF>
  </metadata>
  <g
     inkscape:label="Layer 1"
     inkscape:groupmode="layer"
     id="layer1"
     transform="translate(0,-142)">
    <path
       id="path868"
       style="fill:none;stroke:#f29422;stroke-width:18.49677658;stroke-linecap:butt;stroke-linejoin:miter;stroke-miterlimit:4;stroke-dasharray:none;stroke-opacity:1"
       d="M 156.47919,162.96127 80.351257,270.93866 m 5.826118,-108.36579 c 2.718854,2.33045 69.913405,110.30784 69.913405,110.30784"
       inkscape:connector-curvature="0" />
    <path
       id="path842"
       style="fill:#02496f;fill-opacity:1;stroke:none;stroke-width:0.24304898;stroke-linecap:butt;stroke-linejoin:miter;stroke-miterlimit:4;stroke-dasharray:none;stroke-opacity:1"
       d="m 15.939474,234.9584 30.215348,-22.75588 17.570748,-12.2138 -0.0016,18.9378 c 0.05971,32.0918 26.125263,57.31038 58.48741,57.31038 32.36214,0 58.25437,-25.56525 58.25437,-57.16164 0,-31.59641 -25.89221,-57.16166 -58.25437,-57.16166 -36.440433,-1.55362 -70.317653,27.53154 -70.317653,27.53154 L 1.8211192,222.78849 1.7863216,198.24042 43.977638,170.6805 c 11.054894,-7.33654 39.73973,-26.66203 78.233802,-27.11023 42.08074,1.69639 76.5977,33.83173 76.5977,75.50498 -2e-5,41.67322 -34.4828,75.50495 -76.5977,75.50495 -42.114897,0 -69.513634,-29.08763 -76.641019,-58.19435 l -29.757275,22.13131 z"
       inkscape:connector-curvature="0"
       sodipodi:nodetypes="ccccccccccccssccc" />
  </g>
</svg>
