<?xml version="1.0" encoding="UTF-8" standalone="no"?>
<!-- Created with Inkscape (http://www.inkscape.org/) -->

<svg
  xmlns:dc="http://purl.org/dc/elements/1.1/"
  xmlns:cc="http://creativecommons.org/ns#"
  xmlns:rdf="http://www.w3.org/1999/02/22-rdf-syntax-ns#"
  xmlns="http://www.w3.org/2000/svg"
  xmlns:sodipodi="http://sodipodi.sourceforge.net/DTD/sodipodi-0.dtd"
  xmlns:inkscape="http://www.inkscape.org/namespaces/inkscape"
  width="297mm"
  height="150mm"
  viewBox="0 0 297 150"
  version="1.1"
  id="svg862"
  inkscape:version="0.92.3 (2405546, 2018-03-11)"
  sodipodi:docname="logo_text.svg">
  <defs
     id="defs856" />
  <sodipodi:namedview
     id="base"
     pagecolor="#ffffff"
     bordercolor="#666666"
     borderopacity="1.0"
     inkscape:pageopacity="0.0"
     inkscape:pageshadow="2"
     inkscape:zoom="0.7"
     inkscape:cx="411.84951"
     inkscape:cy="474.27285"
     inkscape:document-units="mm"
     inkscape:current-layer="layer1"
     showgrid="true"
     inkscape:snap-global="false"
     height="150mm"
     inkscape:window-width="1920"
     inkscape:window-height="967"
     inkscape:window-x="2560"
     inkscape:window-y="24"
     inkscape:window-maximized="1">
    <inkscape:grid
       type="xygrid"
       id="grid1407" />
  </sodipodi:namedview>
  <metadata
     id="metadata859">
    <rdf:RDF>
      <cc:Work
         rdf:about="">
        <dc:format>image/svg+xml</dc:format>
        <dc:type
           rdf:resource="http://purl.org/dc/dcmitype/StillImage" />
        <dc:title></dc:title>
      </cc:Work>
    </rdf:RDF>
  </metadata>
  <g
     inkscape:label="Layer 1"
     inkscape:groupmode="layer"
     id="layer1"
     transform="translate(0,-147)">
    <flowRoot
       xml:space="preserve"
       id="flowRoot1409"
       style="font-style:normal;font-weight:normal;font-size:96px;line-height:1.25;font-family:sans-serif;letter-spacing:0px;word-spacing:0px;fill:#000000;fill-opacity:1;stroke:none"
       transform="matrix(0.26458333,0,0,0.26458333,0,87)"><flowRegion
         id="flowRegion1411"
         style="font-size:96px"><rect
           id="rect1413"
           width="954.28571"
           height="552.85712"
           x="48.57143"
           y="147.98653"
           style="font-size:96px" /></flowRegion><flowPara
         id="flowPara1415" /></flowRoot>    <flowRoot
       xml:space="preserve"
       id="flowRoot829"
       style="fill:black;fill-opacity:1;stroke:none;font-family:Bangers;font-style:normal;font-weight:normal;font-size:40px;line-height:1.25;letter-spacing:0px;word-spacing:0px;-inkscape-font-specification:Bangers;font-stretch:normal;font-variant:normal;"><flowRegion
         id="flowRegion831"
         style="-inkscape-font-specification:Bangers;font-family:Bangers;font-weight:normal;font-style:normal;font-stretch:normal;font-variant:normal;"><rect
           id="rect833"
           width="137.14285"
           height="267.14285"
           x="-235.71428"
           y="-277.35657"
           style="-inkscape-font-specification:Bangers;font-family:Bangers;font-weight:normal;font-style:normal;font-stretch:normal;font-variant:normal;" /></flowRegion><flowPara
         id="flowPara835"></flowPara></flowRoot>    <g
       aria-label="XAI"
       transform="matrix(0.95536566,0,0,1.0579131,-104.24246,492.30873)"
       style="font-style:normal;font-weight:normal;font-size:40px;line-height:1.25;font-family:sans-serif;letter-spacing:0px;word-spacing:0px;fill:#000000;fill-opacity:1;stroke:none"
       id="flowRoot837">
      <path
         d="m 235.99034,-320.91522 h 5.664 l 18.432,30.144 19.2,-30.144 h 5.088 l -22.08,33.696 22.176,34.944 h -5.568 l -19.776,-31.872 -20.64,31.872 h -5.088 l 23.424,-35.52 z"
         style="font-style:normal;font-variant:normal;font-weight:normal;font-stretch:normal;font-size:96px;font-family:'Julius Sans One';-inkscape-font-specification:'Julius Sans One';text-align:center;text-anchor:middle;fill:#e18f17;fill-opacity:1"
         id="path853" />
      <path
         d="m 303.28484,-276.08322 -9.888,23.808 h -4.896 l 28.896,-69.12 h 2.688 l 28.992,69.12 h -5.184 l -9.888,-23.808 z m 15.168,-37.632 q -0.096,0.096 -0.384,1.152 -1.344,4.128 -2.592,7.008 l -10.56,25.536 h 27.456 l -10.56,-25.44 q -3.36,-7.296 -3.36,-8.256 z"
         style="font-style:normal;font-variant:normal;font-weight:normal;font-stretch:normal;font-size:96px;font-family:'Julius Sans One';-inkscape-font-specification:'Julius Sans One';text-align:center;text-anchor:middle;fill:#468d0e;fill-opacity:1"
         id="path855" />
      <path
         d="m 363.19934,-252.27522 v -68.64 h 4.608 v 68.64 z"
         style="font-style:normal;font-variant:normal;font-weight:normal;font-stretch:normal;font-size:96px;font-family:'Julius Sans One';-inkscape-font-specification:'Julius Sans One';text-align:center;text-anchor:middle;fill:#468d0e;fill-opacity:1"
         id="path857" />
    </g>
    <g
       aria-label="EXPLORE"
       transform="matrix(0.60080368,0,0,0.98806073,-42.259084,468.76695)"
       style="font-style:normal;font-weight:normal;font-size:40px;line-height:1.25;font-family:sans-serif;letter-spacing:0px;word-spacing:0px;fill:#ffffff;fill-opacity:1;stroke:none"
       id="flowRoot845">
      <path
         d="m 134.43066,-177.76091 v -61.01334 h 28.33067 v 3.584 h -24.23467 v 22.44267 h 21.93067 v 3.49867 h -21.93067 v 27.904 H 163.7 v 3.584 z"
         style="font-style:normal;font-variant:normal;font-weight:normal;font-stretch:normal;font-size:85.33333588px;font-family:'Julius Sans One';-inkscape-font-specification:'Julius Sans One';text-align:center;text-anchor:middle;fill:#ffffff;fill-opacity:1"
         id="path879" />
      <path
         d="m 173.356,-238.77425 h 5.03466 l 16.384,26.79467 17.06667,-26.79467 h 4.52267 l -19.62667,29.952 19.712,31.06134 H 211.5 l -17.57867,-28.33067 -18.34667,28.33067 H 171.052 l 20.82133,-31.57334 z"
         style="font-style:normal;font-variant:normal;font-weight:normal;font-stretch:normal;font-size:85.33333588px;font-family:'Julius Sans One';-inkscape-font-specification:'Julius Sans One';text-align:center;text-anchor:middle;fill:#ffffff;fill-opacity:1"
         id="path881" />
      <path
         d="m 229.93066,-177.76091 v -60.672 q 7.08267,-0.68267 13.73867,-0.68267 8.96,0 14.336,4.18133 5.46133,4.18134 5.46133,12.62934 0,8.36266 -7.424,13.824 -7.33866,5.376 -17.57866,5.376 -0.42667,0 -0.93867,0 v -2.816 q 0.34133,0 0.59733,0 8.448,0 14.67734,-4.43734 6.22933,-4.43733 6.22933,-11.52 0,-7.168 -4.352,-10.32533 -4.352,-3.24267 -11.69067,-3.24267 -3.84,0 -8.96,0.34134 v 57.344 z"
         style="font-style:normal;font-variant:normal;font-weight:normal;font-stretch:normal;font-size:85.33333588px;font-family:'Julius Sans One';-inkscape-font-specification:'Julius Sans One';text-align:center;text-anchor:middle;fill:#ffffff;fill-opacity:1"
         id="path883" />
      <path
         d="m 279.43066,-177.76091 v -61.01334 h 4.096 v 57.25867 h 28.07467 v 3.75467 z"
         style="font-style:normal;font-variant:normal;font-weight:normal;font-stretch:normal;font-size:85.33333588px;font-family:'Julius Sans One';-inkscape-font-specification:'Julius Sans One';text-align:center;text-anchor:middle;fill:#ffffff;fill-opacity:1"
         id="path885" />
      <path
         d="m 325.79466,-185.86758 q -8.448,-9.13067 -8.448,-22.44267 0,-13.312 8.448,-22.35733 8.53334,-9.13067 21.504,-9.13067 12.97067,0 21.504,9.13067 8.53334,9.04533 8.53334,22.35733 0,13.312 -8.53334,22.44267 -8.53333,9.13067 -21.504,9.13067 -12.97066,0 -21.504,-9.13067 z m 3.072,-42.15467 q -7.08267,7.936 -7.08267,19.712 0,11.776 7.08267,19.79734 7.168,8.02133 18.432,8.02133 11.34934,0 18.432,-8.02133 7.168,-8.02134 7.168,-19.79734 0,-11.776 -7.168,-19.712 -7.08266,-8.02133 -18.432,-8.02133 -11.34933,0 -18.432,8.02133 z"
         style="font-style:normal;font-variant:normal;font-weight:normal;font-stretch:normal;font-size:85.33333588px;font-family:'Julius Sans One';-inkscape-font-specification:'Julius Sans One';text-align:center;text-anchor:middle;fill:#ffffff;fill-opacity:1"
         id="path887" />
      <path
         d="m 396.26401,-177.76091 v -60.75734 q 8.10666,-0.59733 13.568,-0.59733 8.704,0 14.336,4.52267 5.632,4.43733 5.632,12.62933 0,5.54667 -3.24267,10.32533 -3.24267,4.77867 -7.25333,7.59467 3.15733,4.352 7.76533,10.41067 4.69333,5.97333 6.05867,7.50933 5.20533,5.54667 11.776,6.31467 l -0.0853,2.73066 q -5.20533,-0.0853 -8.448,-1.536 -3.24266,-1.536 -6.22933,-4.608 -2.90133,-3.072 -14.592,-19.11466 -8.36267,0 -15.18933,-0.512 v 25.088 z m 16.81066,-27.98934 q 3.75467,0 8.02134,-4.94933 4.26666,-4.94933 4.26666,-11.43467 0,-6.57066 -4.43733,-9.89866 -4.352,-3.41334 -11.60533,-3.41334 -3.84,0 -8.96,0.34134 v 28.928 q 6.82666,0.42666 12.71466,0.42666 z"
         style="font-style:normal;font-variant:normal;font-weight:normal;font-stretch:normal;font-size:85.33333588px;font-family:'Julius Sans One';-inkscape-font-specification:'Julius Sans One';text-align:center;text-anchor:middle;fill:#ffffff;fill-opacity:1"
         id="path889" />
      <path
         d="m 452.43066,-177.76091 v -61.01334 h 28.33067 v 3.584 h -24.23467 v 22.44267 h 21.93067 v 3.49867 h -21.93067 v 27.904 H 481.7 v 3.584 z"
         style="font-style:normal;font-variant:normal;font-weight:normal;font-stretch:normal;font-size:85.33333588px;font-family:'Julius Sans One';-inkscape-font-specification:'Julius Sans One';text-align:center;text-anchor:middle;fill:#ffffff;fill-opacity:1"
         id="path891" />
    </g>
  </g>
</svg>
