<?xml version="1.0" encoding="UTF-8" standalone="no"?>
<svg
  xmlns:dc="http://purl.org/dc/elements/1.1/"
  xmlns:cc="http://creativecommons.org/ns#"
  xmlns:rdf="http://www.w3.org/1999/02/22-rdf-syntax-ns#"
  xmlns="http://www.w3.org/2000/svg"
  xmlns:sodipodi="http://sodipodi.sourceforge.net/DTD/sodipodi-0.dtd"
  xmlns:inkscape="http://www.inkscape.org/namespaces/inkscape"
  id="Ebene_1"
  data-name="Ebene 1"
  viewBox="0 0 560.89001 260.28001"
  version="1.1"
  sodipodi:docname="Logo_CPEC_final_RGB_v2.svg"
  width="560.89001"
  height="260.28003"
  inkscape:version="0.92.3 (2405546, 2018-03-11)">
  <metadata
     id="metadata77">
    <rdf:RDF>
      <cc:Work
         rdf:about="">
        <dc:format>image/svg+xml</dc:format>
        <dc:type
           rdf:resource="http://purl.org/dc/dcmitype/StillImage" />
        <dc:title>CPEC_final_Lato</dc:title>
      </cc:Work>
    </rdf:RDF>
  </metadata>
  <sodipodi:namedview
     pagecolor="#ffffff"
     bordercolor="#666666"
     borderopacity="1"
     objecttolerance="10"
     gridtolerance="10"
     guidetolerance="10"
     inkscape:pageopacity="0"
     inkscape:pageshadow="2"
     inkscape:window-width="1920"
     inkscape:window-height="967"
     id="namedview75"
     showgrid="false"
     inkscape:zoom="1.0045252"
     inkscape:cx="355.51274"
     inkscape:cy="277.64947"
     inkscape:window-x="2560"
     inkscape:window-y="24"
     inkscape:window-maximized="1"
     inkscape:current-layer="Ebene_1" />
  <defs
     id="defs4">
    <style
       id="style2">.cls-1{fill:#aac811;}.cls-2{fill:#3abddc;}.cls-3{fill:#3c3c3b;}</style>
  </defs>
  <title
     id="title6">CPEC_final_Lato</title>
  <path
     class="cls-1"
     d="M 46.895174,97.423106 V 77.423105 a 10.2,10.2 0 0 1 10.2,-10.2 h 50.000006 a 30.18,30.18 0 0 0 30.18,-30.180002 H 46.715174 a 30.17,30.17 0 0 0 -30,30.170002 V 157.7431 a 30.18,30.18 0 0 0 29.83,30.17 h 90.530006 a 30.18,30.18 0 0 0 -30.18,-30.18 H 57.095174 a 10.2,10.2 0 0 1 -10.2,-10.19 z"
     id="path8"
     inkscape:connector-curvature="0"
     style="fill:#aac811" />
  <path
     class="cls-2"
     d="m 242.63518,37.393103 h -60.35 a 30.18,30.18 0 0 0 -30.18,30.180002 V 188.2831 a 30.18,30.18 0 0 0 30.18,-30.13 V 77.763105 a 10.2,10.2 0 0 1 10.2,-10.19 h 40 a 10.2,10.2 0 0 1 10.15,10.19 v 9.680001 a 10.2,10.2 0 0 1 -10.2,10.2 h -19.7 a 30.18,30.18 0 0 0 -30.18,30.169994 h 60.35 a 30.18,30.18 0 0 0 29.91,-30.169994 v -30.180001 0 a 30.17,30.17 0 0 0 -30.18,-30.070002 z"
     id="path10"
     inkscape:connector-curvature="0"
     style="fill:#3abddc" />
  <path
     class="cls-2"
     d="m 319.00518,77.443105 a 10.19,10.19 0 0 1 10.19,-10.2 h 50 a 30.18,30.18 0 0 0 30.18,-30.180002 h -90.55 a 30.17,30.17 0 0 0 -30,30.170002 V 157.7631 a 30.17,30.17 0 0 0 29.81,30.18 h 90.53 a 30.18,30.18 0 0 0 -30.18,-30.18 h -49.79 a 10.19,10.19 0 0 1 -10.19,-10.19 v -20 h 30.17 a 30.17,30.17 0 0 0 30.17,-30.169994 h -60.34 V 77.403105 Z"
     id="path12"
     inkscape:connector-curvature="0"
     style="fill:#3abddc" />
  <path
     class="cls-2"
     d="m 514.08518,157.7731 h -49.8 a 10.19,10.19 0 0 1 -10.2,-10.19 V 77.443105 a 10.19,10.19 0 0 1 10.2,-10.2 h 50 a 30.18,30.18 0 0 0 30.18,-30.180002 h -90.56 a 30.17,30.17 0 0 0 -30,30.170002 V 157.7631 a 30.18,30.18 0 0 0 29.83,30.17 h 90.53 a 30.18,30.18 0 0 0 -30.18,-30.16 z"
     id="path14"
     inkscape:connector-curvature="0"
     style="fill:#3abddc" />
  <path
     class="cls-3"
     d="m 31.635174,225.6731 a 0.57,0.57 0 0 1 0.39,0.17 l 1,1.13 a 8.32,8.32 0 0 1 -2.89,2.15 10.87,10.87 0 0 1 -7.91,0 8.57,8.57 0 0 1 -2.91,-2 9.36,9.36 0 0 1 -1.87,-3.14 11.77,11.77 0 0 1 -0.66,-4 11.09,11.09 0 0 1 0.71,-4 9.18,9.18 0 0 1 2,-3.14 8.82,8.82 0 0 1 3.08,-2 10.38,10.38 0 0 1 4,-0.73 8.9,8.9 0 0 1 6.45,2.47 l -0.86,1.2 a 0.93,0.93 0 0 1 -0.21,0.23 0.6,0.6 0 0 1 -0.36,0.08 0.73,0.73 0 0 1 -0.37,-0.12 l -0.46,-0.32 c -0.18,-0.13 -0.4,-0.26 -0.64,-0.41 a 5.47,5.47 0 0 0 -0.87,-0.4 6.23,6.23 0 0 0 -1.16,-0.32 7.8,7.8 0 0 0 -1.53,-0.13 7.49,7.49 0 0 0 -2.85,0.53 6.34,6.34 0 0 0 -2.23,1.53 7,7 0 0 0 -1.46,2.41 9.38,9.38 0 0 0 -0.52,3.18 9.57,9.57 0 0 0 0.52,3.24 7.33,7.33 0 0 0 1.43,2.4 6.15,6.15 0 0 0 2.18,1.47 6.84,6.84 0 0 0 2.65,0.51 10.49,10.49 0 0 0 1.56,-0.1 6.15,6.15 0 0 0 1.28,-0.32 5.39,5.39 0 0 0 1.1,-0.55 8.53,8.53 0 0 0 1,-0.79 0.65,0.65 0 0 1 0.41,-0.23 z"
     id="path16"
     inkscape:connector-curvature="0"
     style="fill:#3c3c3b" />
  <path
     class="cls-3"
     d="m 48.695174,210.2731 v 2.14 h -9.32 v 6.45 h 7.54 v 2.05 h -7.54 v 6.63 h 9.32 v 2.14 h -12 v -19.41 z"
     id="path18"
     inkscape:connector-curvature="0"
     style="fill:#3c3c3b" />
  <path
     class="cls-3"
     d="m 54.535174,210.3631 a 1.51,1.51 0 0 1 0.39,0.36 l 11.24,14.62 c 0,-0.23 -0.05,-0.46 -0.06,-0.68 -0.01,-0.22 0,-0.44 0,-0.64 v -13.75 h 2.3 v 19.41 h -1.33 a 1.17,1.17 0 0 1 -0.52,-0.11 1.52,1.52 0 0 1 -0.41,-0.37 l -11.23,-14.61 c 0,0.23 0,0.45 0,0.66 0,0.21 0,0.42 0,0.6 v 13.83 h -2.28 v -19.41 h 1.35 a 1.15,1.15 0 0 1 0.55,0.09 z"
     id="path20"
     inkscape:connector-curvature="0"
     style="fill:#3c3c3b" />
  <path
     class="cls-3"
     d="m 86.545175,210.2731 v 2.21 h -6.27 v 17.2 h -2.640001 v -17.2 h -6.3 v -2.21 z"
     id="path22"
     inkscape:connector-curvature="0"
     style="fill:#3c3c3b" />
  <path
     class="cls-3"
     d="m 101.45518,210.2731 v 2.14 h -9.320005 v 6.45 h 7.5 v 2.05 h -7.5 v 6.63 h 9.320005 v 2.14 H 89.455175 v -19.41 z"
     id="path24"
     inkscape:connector-curvature="0"
     style="fill:#3c3c3b" />
  <path
     class="cls-3"
     d="m 108.30518,221.5831 v 8.1 h -2.62 v -19.41 h 5.49 a 11.87,11.87 0 0 1 3.18,0.37 6.22,6.22 0 0 1 2.22,1.08 4.36,4.36 0 0 1 1.29,1.7 5.65,5.65 0 0 1 0.42,2.23 5.53,5.53 0 0 1 -0.33,1.92 5,5 0 0 1 -0.94,1.6 5.65,5.65 0 0 1 -1.5,1.22 7.48,7.48 0 0 1 -2,0.75 2.81,2.81 0 0 1 0.86,0.83 l 5.67,7.71 h -2.33 a 1.16,1.16 0 0 1 -1.08,-0.53 l -5,-7 a 1.38,1.38 0 0 0 -0.5,-0.47 1.73,1.73 0 0 0 -0.81,-0.14 z m 0,-1.91 h 2.75 a 6.53,6.53 0 0 0 2,-0.28 4,4 0 0 0 1.46,-0.79 3.13,3.13 0 0 0 0.89,-1.21 3.93,3.93 0 0 0 0.3,-1.55 3.09,3.09 0 0 0 -1.15,-2.62 5.55,5.55 0 0 0 -3.4,-0.88 h -2.87 z"
     id="path26"
     inkscape:connector-curvature="0"
     style="fill:#3c3c3b" />
  <path
     class="cls-3"
     d="m 140.42518,210.2731 v 2.14 h -9.32 v 6.74 h 8 v 2.14 h -8 v 8.35 h -2.64 v -19.37 z"
     id="path28"
     inkscape:connector-curvature="0"
     style="fill:#3c3c3b" />
  <path
     class="cls-3"
     d="m 162.00518,219.9831 a 11.2,11.2 0 0 1 -0.69,4 9.16,9.16 0 0 1 -1.95,3.14 8.69,8.69 0 0 1 -3,2 10.81,10.81 0 0 1 -7.81,0 8.79,8.79 0 0 1 -3,-2 9.16,9.16 0 0 1 -1.95,-3.14 11.94,11.94 0 0 1 0,-8 9.16,9.16 0 0 1 1.95,-3.14 8.86,8.86 0 0 1 3,-2.06 10.81,10.81 0 0 1 7.81,0 8.77,8.77 0 0 1 3,2.06 9.16,9.16 0 0 1 1.95,3.14 11.2,11.2 0 0 1 0.69,4 z m -2.69,0 a 9.75,9.75 0 0 0 -0.49,-3.21 6.58,6.58 0 0 0 -1.38,-2.4 5.86,5.86 0 0 0 -2.17,-1.51 7.85,7.85 0 0 0 -5.67,0 5.94,5.94 0 0 0 -2.17,1.51 6.6,6.6 0 0 0 -1.39,2.4 9.75,9.75 0 0 0 -0.49,3.21 9.64,9.64 0 0 0 0.49,3.2 6.68,6.68 0 0 0 1.39,2.4 6,6 0 0 0 2.17,1.5 8,8 0 0 0 5.67,0 6,6 0 0 0 2.17,-1.5 6.66,6.66 0 0 0 1.38,-2.4 9.64,9.64 0 0 0 0.49,-3.2 z"
     id="path30"
     inkscape:connector-curvature="0"
     style="fill:#3c3c3b" />
  <path
     class="cls-3"
     d="m 168.63518,221.5831 v 8.1 h -2.62 v -19.41 h 5.49 a 11.92,11.92 0 0 1 3.18,0.37 6.09,6.09 0 0 1 2.21,1.08 4.29,4.29 0 0 1 1.3,1.7 5.65,5.65 0 0 1 0.42,2.23 5.53,5.53 0 0 1 -0.33,1.92 5.15,5.15 0 0 1 -0.94,1.6 5.65,5.65 0 0 1 -1.5,1.22 7.48,7.48 0 0 1 -2,0.75 2.81,2.81 0 0 1 0.86,0.83 l 5.66,7.71 h -2.33 a 1.15,1.15 0 0 1 -1.05,-0.56 l -5,-6.93 a 1.38,1.38 0 0 0 -0.5,-0.47 1.73,1.73 0 0 0 -0.81,-0.14 z m 0,-1.91 h 2.75 a 6.53,6.53 0 0 0 2,-0.28 4,4 0 0 0 1.46,-0.79 3.23,3.23 0 0 0 0.89,-1.21 3.93,3.93 0 0 0 0.3,-1.55 3.09,3.09 0 0 0 -1.15,-2.62 5.57,5.57 0 0 0 -3.4,-0.88 h -2.85 z"
     id="path32"
     inkscape:connector-curvature="0"
     style="fill:#3c3c3b" />
  <path
     class="cls-3"
     d="m 192.21518,222.7831 v 6.9 h -3.64 v -19.59 h 6.38 a 11.41,11.41 0 0 1 3.4,0.46 6.55,6.55 0 0 1 2.37,1.29 5.07,5.07 0 0 1 1.38,2 7.28,7.28 0 0 1 0,5.12 5.38,5.38 0 0 1 -1.42,2 6.63,6.63 0 0 1 -2.37,1.33 10.75,10.75 0 0 1 -3.33,0.47 z m 0,-2.84 h 2.74 a 5.72,5.72 0 0 0 1.75,-0.25 3.39,3.39 0 0 0 1.23,-0.72 2.94,2.94 0 0 0 0.73,-1.14 4.35,4.35 0 0 0 0.24,-1.49 4,4 0 0 0 -0.24,-1.43 2.87,2.87 0 0 0 -0.73,-1.08 3.33,3.33 0 0 0 -1.23,-0.68 5.74,5.74 0 0 0 -1.75,-0.24 h -2.74 z"
     id="path34"
     inkscape:connector-curvature="0"
     style="fill:#3c3c3b" />
  <path
     class="cls-3"
     d="m 217.92518,210.0931 v 2.9 h -8.68 v 5.43 h 6.84 v 2.81 h -6.84 v 5.53 h 8.68 v 2.92 h -12.35 v -19.59 z"
     id="path36"
     inkscape:connector-curvature="0"
     style="fill:#3c3c3b" />
  <path
     class="cls-3"
     d="m 225.03518,222.0231 v 7.66 h -3.65 v -19.59 h 6 a 12.27,12.27 0 0 1 3.43,0.42 6.56,6.56 0 0 1 2.34,1.15 4.48,4.48 0 0 1 1.34,1.79 5.83,5.83 0 0 1 0.43,2.28 6,6 0 0 1 -0.29,1.87 5.44,5.44 0 0 1 -2.2,2.85 7.2,7.2 0 0 1 -1.83,0.87 3.62,3.62 0 0 1 1.19,1.12 l 4.9,7.24 h -3.28 a 1.66,1.66 0 0 1 -0.8,-0.19 1.63,1.63 0 0 1 -0.56,-0.55 l -4.12,-6.27 a 1.42,1.42 0 0 0 -0.51,-0.5 1.76,1.76 0 0 0 -0.82,-0.15 z m 0,-2.61 h 2.27 a 5.7,5.7 0 0 0 1.8,-0.26 3.35,3.35 0 0 0 1.26,-0.71 2.92,2.92 0 0 0 0.73,-1.07 3.59,3.59 0 0 0 0.25,-1.37 2.8,2.8 0 0 0 -1,-2.29 4.73,4.73 0 0 0 -3,-0.8 h -2.31 z"
     id="path38"
     inkscape:connector-curvature="0"
     style="fill:#3c3c3b" />
  <path
     class="cls-3"
     d="m 249.69518,213.6631 a 1.15,1.15 0 0 1 -0.35,0.42 0.89,0.89 0 0 1 -0.47,0.12 1.2,1.2 0 0 1 -0.61,-0.21 l -0.79,-0.47 a 6.85,6.85 0 0 0 -1.08,-0.47 4.55,4.55 0 0 0 -1.46,-0.21 4.08,4.08 0 0 0 -1.32,0.19 2.8,2.8 0 0 0 -0.94,0.5 2.1,2.1 0 0 0 -0.58,0.78 2.54,2.54 0 0 0 -0.19,1 1.72,1.72 0 0 0 0.39,1.15 2.94,2.94 0 0 0 1,0.78 9.92,9.92 0 0 0 1.45,0.59 l 1.66,0.54 a 16.84,16.84 0 0 1 1.65,0.68 5.44,5.44 0 0 1 1.45,1 4.34,4.34 0 0 1 1,1.44 5.14,5.14 0 0 1 0.38,2.07 6.84,6.84 0 0 1 -0.45,2.49 5.7,5.7 0 0 1 -1.33,2 6.13,6.13 0 0 1 -2.13,1.36 7.85,7.85 0 0 1 -2.89,0.49 9.49,9.49 0 0 1 -1.84,-0.18 10.27,10.27 0 0 1 -1.74,-0.52 9.15,9.15 0 0 1 -1.55,-0.82 7.11,7.11 0 0 1 -1.3,-1.05 l 1.06,-1.75 a 1.59,1.59 0 0 1 0.36,-0.32 0.9,0.9 0 0 1 0.56,-0.11 1.35,1.35 0 0 1 0.74,0.27 c 0.26,0.19 0.57,0.39 0.92,0.62 a 8.22,8.22 0 0 0 1.26,0.62 5,5 0 0 0 1.74,0.27 3.53,3.53 0 0 0 2.34,-0.78 2.63,2.63 0 0 0 0.86,-2.11 1.94,1.94 0 0 0 -0.39,-1.26 3.1,3.1 0 0 0 -1,-0.82 8.43,8.43 0 0 0 -1.45,-0.57 c -0.54,-0.15 -1.09,-0.32 -1.65,-0.5 a 13.57,13.57 0 0 1 -1.66,-0.65 5.32,5.32 0 0 1 -1.44,-1 4.53,4.53 0 0 1 -1,-1.53 5.94,5.94 0 0 1 -0.38,-2.25 5.42,5.42 0 0 1 0.42,-2.09 5.31,5.31 0 0 1 1.25,-1.8 6.37,6.37 0 0 1 2,-1.26 7.42,7.42 0 0 1 2.72,-0.47 9.19,9.19 0 0 1 3.2,0.54 7.28,7.28 0 0 1 2.49,1.52 z"
     id="path40"
     inkscape:connector-curvature="0"
     style="fill:#3c3c3b" />
  <path
     class="cls-3"
     d="m 257.68518,222.7831 v 6.9 h -3.65 v -19.59 h 6.38 a 11.41,11.41 0 0 1 3.4,0.46 6.55,6.55 0 0 1 2.37,1.29 5.07,5.07 0 0 1 1.38,2 7.28,7.28 0 0 1 0,5.12 5.38,5.38 0 0 1 -1.42,2 6.63,6.63 0 0 1 -2.37,1.33 10.75,10.75 0 0 1 -3.33,0.47 z m 0,-2.84 h 2.73 a 5.72,5.72 0 0 0 1.75,-0.25 3.31,3.31 0 0 0 1.23,-0.72 2.94,2.94 0 0 0 0.73,-1.14 4.35,4.35 0 0 0 0.24,-1.49 4,4 0 0 0 -0.24,-1.43 2.87,2.87 0 0 0 -0.73,-1.08 3.25,3.25 0 0 0 -1.23,-0.68 5.74,5.74 0 0 0 -1.75,-0.24 h -2.73 z"
     id="path42"
     inkscape:connector-curvature="0"
     style="fill:#3c3c3b" />
  <path
     class="cls-3"
     d="m 275.13518,229.6831 h -3.65 v -19.59 h 3.65 z"
     id="path44"
     inkscape:connector-curvature="0"
     style="fill:#3c3c3b" />
  <path
     class="cls-3"
     d="m 293.18518,225.0631 a 0.68,0.68 0 0 1 0.52,0.23 l 1.43,1.55 a 7.87,7.87 0 0 1 -2.93,2.27 10.16,10.16 0 0 1 -4.18,0.78 10,10 0 0 1 -3.92,-0.74 8.72,8.72 0 0 1 -3,-2.07 9.26,9.26 0 0 1 -1.89,-3.17 11.87,11.87 0 0 1 -0.66,-4 11,11 0 0 1 0.73,-4 9.1,9.1 0 0 1 5.24,-5.22 10.74,10.74 0 0 1 4.08,-0.74 9.71,9.71 0 0 1 3.81,0.69 9.17,9.17 0 0 1 2.8,1.85 l -1.22,1.7 a 1.06,1.06 0 0 1 -0.28,0.28 0.76,0.76 0 0 1 -0.46,0.12 1.09,1.09 0 0 1 -0.64,-0.24 8.17,8.17 0 0 0 -0.83,-0.53 6.36,6.36 0 0 0 -1.26,-0.53 6.64,6.64 0 0 0 -1.95,-0.24 6.52,6.52 0 0 0 -2.53,0.48 5.58,5.58 0 0 0 -2,1.37 6.41,6.41 0 0 0 -1.31,2.18 8.35,8.35 0 0 0 -0.46,2.87 8.56,8.56 0 0 0 0.46,2.94 6.68,6.68 0 0 0 1.27,2.17 5.34,5.34 0 0 0 1.88,1.35 5.87,5.87 0 0 0 2.33,0.46 9.25,9.25 0 0 0 1.35,-0.08 6,6 0 0 0 1.11,-0.25 4.71,4.71 0 0 0 1,-0.46 5.46,5.46 0 0 0 0.9,-0.68 1.37,1.37 0 0 1 0.29,-0.2 0.68,0.68 0 0 1 0.32,-0.14 z"
     id="path46"
     inkscape:connector-curvature="0"
     style="fill:#3c3c3b" />
  <path
     class="cls-3"
     d="m 305.95518,226.7431 a 4.86,4.86 0 0 0 1.89,-0.35 4,4 0 0 0 1.41,-1 4.36,4.36 0 0 0 0.88,-1.55 6.42,6.42 0 0 0 0.3,-2 v -11.75 h 3.65 v 11.73 a 8.91,8.91 0 0 1 -0.57,3.23 7.28,7.28 0 0 1 -1.61,2.56 7.4,7.4 0 0 1 -2.56,1.68 9.85,9.85 0 0 1 -6.77,0 7.22,7.22 0 0 1 -2.56,-1.68 7.43,7.43 0 0 1 -1.61,-2.56 9.13,9.13 0 0 1 -0.56,-3.23 v -11.73 h 3.64 v 11.72 a 6.18,6.18 0 0 0 0.31,2 4.43,4.43 0 0 0 0.87,1.55 3.94,3.94 0 0 0 1.4,1 4.93,4.93 0 0 0 1.89,0.38 z"
     id="path48"
     inkscape:connector-curvature="0"
     style="fill:#3c3c3b" />
  <path
     class="cls-3"
     d="m 336.76518,219.8831 a 10.8,10.8 0 0 1 -0.72,4 9.44,9.44 0 0 1 -2,3.18 9.16,9.16 0 0 1 -3.12,2.09 11.34,11.34 0 0 1 -8.11,0 9.09,9.09 0 0 1 -5.16,-5.27 11.39,11.39 0 0 1 0,-8 9.09,9.09 0 0 1 5.16,-5.27 10.64,10.64 0 0 1 4.06,-0.75 10.4,10.4 0 0 1 4,0.76 9.16,9.16 0 0 1 3.12,2.09 9.3,9.3 0 0 1 2,3.17 10.79,10.79 0 0 1 0.77,4 z m -3.74,0 a 9.29,9.29 0 0 0 -0.42,-2.89 6.3,6.3 0 0 0 -1.23,-2.17 5.27,5.27 0 0 0 -1.94,-1.37 7.34,7.34 0 0 0 -5.17,0 5.34,5.34 0 0 0 -2,1.37 6.32,6.32 0 0 0 -1.24,2.17 10,10 0 0 0 0,5.79 6.18,6.18 0 0 0 1.24,2.16 5.32,5.32 0 0 0 2,1.36 7.2,7.2 0 0 0 5.17,0 5.25,5.25 0 0 0 1.94,-1.36 6.16,6.16 0 0 0 1.23,-2.16 9.31,9.31 0 0 0 0.42,-2.9 z"
     id="path50"
     inkscape:connector-curvature="0"
     style="fill:#3c3c3b" />
  <path
     class="cls-3"
     d="m 347.70518,226.7431 a 4.93,4.93 0 0 0 1.89,-0.35 4.18,4.18 0 0 0 1.41,-1 4.51,4.51 0 0 0 0.88,-1.55 6.42,6.42 0 0 0 0.3,-2 v -11.75 h 3.65 v 11.73 a 8.91,8.91 0 0 1 -0.57,3.23 7.17,7.17 0 0 1 -1.62,2.56 7.27,7.27 0 0 1 -2.55,1.68 9.88,9.88 0 0 1 -6.78,0 7.27,7.27 0 0 1 -2.55,-1.68 7.43,7.43 0 0 1 -1.61,-2.56 9.13,9.13 0 0 1 -0.56,-3.23 v -11.73 h 3.64 v 11.72 a 6.18,6.18 0 0 0 0.31,2 4.43,4.43 0 0 0 0.87,1.55 3.94,3.94 0 0 0 1.4,1 4.93,4.93 0 0 0 1.89,0.38 z"
     id="path52"
     inkscape:connector-curvature="0"
     style="fill:#3c3c3b" />
  <path
     class="cls-3"
     d="m 370.22518,213.6631 a 1.14,1.14 0 0 1 -0.34,0.42 0.91,0.91 0 0 1 -0.47,0.12 1.17,1.17 0 0 1 -0.61,-0.21 c -0.23,-0.14 -0.49,-0.3 -0.8,-0.47 a 6.85,6.85 0 0 0 -1.08,-0.47 4.48,4.48 0 0 0 -1.45,-0.21 4,4 0 0 0 -1.32,0.19 2.85,2.85 0 0 0 -0.95,0.5 2.1,2.1 0 0 0 -0.58,0.78 2.74,2.74 0 0 0 -0.19,1 1.72,1.72 0 0 0 0.39,1.15 3.14,3.14 0 0 0 1,0.78 10.4,10.4 0 0 0 1.45,0.59 l 1.66,0.54 a 17,17 0 0 1 1.66,0.68 5.78,5.78 0 0 1 1.45,1 4.47,4.47 0 0 1 1,1.44 5,5 0 0 1 0.39,2.07 6.64,6.64 0 0 1 -0.46,2.49 5.67,5.67 0 0 1 -1.32,2 6.27,6.27 0 0 1 -2.14,1.36 7.83,7.83 0 0 1 -2.88,0.49 9.41,9.41 0 0 1 -1.84,-0.18 9.75,9.75 0 0 1 -1.74,-0.52 8.88,8.88 0 0 1 -1.56,-0.82 7.39,7.39 0 0 1 -1.29,-1.05 l 1.05,-1.75 a 1.59,1.59 0 0 1 0.36,-0.32 0.94,0.94 0 0 1 0.47,-0.12 1.32,1.32 0 0 1 0.73,0.27 c 0.26,0.19 0.57,0.39 0.93,0.62 a 7.4,7.4 0 0 0 1.26,0.62 5,5 0 0 0 1.74,0.27 3.55,3.55 0 0 0 2.41,-0.74 2.62,2.62 0 0 0 0.85,-2.11 1.94,1.94 0 0 0 -0.39,-1.26 2.91,2.91 0 0 0 -1,-0.82 7.83,7.83 0 0 0 -1.45,-0.57 c -0.54,-0.15 -1.09,-0.32 -1.65,-0.5 a 12.84,12.84 0 0 1 -1.65,-0.65 5.37,5.37 0 0 1 -1.45,-1 4.51,4.51 0 0 1 -1,-1.53 5.74,5.74 0 0 1 -0.39,-2.25 5.43,5.43 0 0 1 1.67,-3.89 6.31,6.31 0 0 1 2,-1.26 7.42,7.42 0 0 1 2.72,-0.47 9.13,9.13 0 0 1 3.19,0.54 7.1,7.1 0 0 1 2.49,1.52 z"
     id="path54"
     inkscape:connector-curvature="0"
     style="fill:#3c3c3b" />
  <path
     class="cls-3"
     d="m 393.32518,225.0631 a 0.68,0.68 0 0 1 0.52,0.23 l 1.43,1.55 a 7.87,7.87 0 0 1 -2.93,2.27 10.16,10.16 0 0 1 -4.18,0.78 10,10 0 0 1 -3.92,-0.74 8.72,8.72 0 0 1 -3,-2.07 9.26,9.26 0 0 1 -1.89,-3.17 11.87,11.87 0 0 1 -0.66,-4 10.8,10.8 0 0 1 0.74,-4 9.28,9.28 0 0 1 2,-3.16 9.44,9.44 0 0 1 3.18,-2.06 10.74,10.74 0 0 1 4.08,-0.74 9.67,9.67 0 0 1 3.81,0.69 9.17,9.17 0 0 1 2.8,1.85 l -1.22,1.7 a 1.19,1.19 0 0 1 -0.27,0.28 0.82,0.82 0 0 1 -0.47,0.12 1.09,1.09 0 0 1 -0.64,-0.24 9.15,9.15 0 0 0 -0.82,-0.53 6.75,6.75 0 0 0 -1.27,-0.53 6.61,6.61 0 0 0 -1.94,-0.24 6.53,6.53 0 0 0 -2.54,0.48 5.58,5.58 0 0 0 -2,1.37 6.23,6.23 0 0 0 -1.3,2.18 8.11,8.11 0 0 0 -0.47,2.87 8.32,8.32 0 0 0 0.47,2.94 6.49,6.49 0 0 0 1.26,2.17 5.34,5.34 0 0 0 1.88,1.35 5.87,5.87 0 0 0 2.33,0.46 9.25,9.25 0 0 0 1.35,-0.08 6,6 0 0 0 1.11,-0.25 4.71,4.71 0 0 0 1,-0.46 5.07,5.07 0 0 0 0.9,-0.68 1.37,1.37 0 0 1 0.29,-0.2 0.71,0.71 0 0 1 0.37,-0.14 z"
     id="path56"
     inkscape:connector-curvature="0"
     style="fill:#3c3c3b" />
  <path
     class="cls-3"
     d="m 416.99518,219.8831 a 11,11 0 0 1 -0.71,4 9.6,9.6 0 0 1 -2,3.18 9.2,9.2 0 0 1 -3.15,2.09 11.31,11.31 0 0 1 -8.1,0 9.28,9.28 0 0 1 -3.15,-2.09 9.44,9.44 0 0 1 -2,-3.18 11.39,11.39 0 0 1 0,-8 9.07,9.07 0 0 1 5.17,-5.27 10.58,10.58 0 0 1 4.05,-0.75 10.4,10.4 0 0 1 4,0.76 9.2,9.2 0 0 1 3.13,2.09 9.45,9.45 0 0 1 2,3.17 11,11 0 0 1 0.76,4 z m -3.73,0 a 9.28,9.28 0 0 0 -0.43,-2.89 6,6 0 0 0 -1.23,-2.17 5.27,5.27 0 0 0 -1.97,-1.37 7.32,7.32 0 0 0 -5.16,0 5.26,5.26 0 0 0 -2,1.37 6.16,6.16 0 0 0 -1.24,2.17 10,10 0 0 0 0,5.79 6,6 0 0 0 1.24,2.16 5.24,5.24 0 0 0 2,1.36 7.17,7.17 0 0 0 5.16,0 5.25,5.25 0 0 0 1.94,-1.36 5.87,5.87 0 0 0 1.23,-2.16 9.3,9.3 0 0 0 0.46,-2.9 z"
     id="path58"
     inkscape:connector-curvature="0"
     style="fill:#3c3c3b" />
  <path
     class="cls-3"
     d="m 430.31518,222.4531 0.39,0.94 c 0.12,-0.32 0.26,-0.64 0.39,-1 0.13,-0.36 0.28,-0.62 0.43,-0.91 l 5.8,-10.84 a 1.57,1.57 0 0 1 0.22,-0.33 0.87,0.87 0 0 1 0.26,-0.18 1.52,1.52 0 0 1 0.32,-0.06 h 0.42 2.75 v 19.59 h -3.21 v -12.63 c 0,-0.24 0,-0.49 0,-0.77 0,-0.28 0,-0.57 0.06,-0.86 l -5.92,11.11 a 1.52,1.52 0 0 1 -0.53,0.59 1.34,1.34 0 0 1 -0.75,0.21 h -0.51 a 1.34,1.34 0 0 1 -0.75,-0.21 1.52,1.52 0 0 1 -0.53,-0.59 l -6,-11.15 c 0,0.3 0.06,0.59 0.07,0.87 0.01,0.28 0,0.55 0,0.8 v 12.65 h -3.21 v -19.59 h 2.75 0.42 a 1.4,1.4 0 0 1 0.32,0.06 0.91,0.91 0 0 1 0.27,0.18 1.57,1.57 0 0 1 0.23,0.33 l 5.85,10.87 q 0.26,0.46 0.46,0.92 z"
     id="path60"
     inkscape:connector-curvature="0"
     style="fill:#3c3c3b" />
  <path
     class="cls-3"
     d="m 449.20518,222.7831 v 6.9 h -3.65 v -19.59 h 6.38 a 11.41,11.41 0 0 1 3.4,0.46 6.55,6.55 0 0 1 2.37,1.29 5.07,5.07 0 0 1 1.38,2 7.28,7.28 0 0 1 0,5.12 5.38,5.38 0 0 1 -1.42,2 6.63,6.63 0 0 1 -2.37,1.33 10.75,10.75 0 0 1 -3.33,0.47 z m 0,-2.84 h 2.73 a 5.72,5.72 0 0 0 1.75,-0.25 3.31,3.31 0 0 0 1.23,-0.72 2.94,2.94 0 0 0 0.73,-1.14 4.35,4.35 0 0 0 0.24,-1.49 4,4 0 0 0 -0.24,-1.43 2.87,2.87 0 0 0 -0.73,-1.08 3.25,3.25 0 0 0 -1.23,-0.68 5.74,5.74 0 0 0 -1.75,-0.24 h -2.73 z"
     id="path62"
     inkscape:connector-curvature="0"
     style="fill:#3c3c3b" />
  <path
     class="cls-3"
     d="m 470.43518,226.7431 a 4.93,4.93 0 0 0 1.89,-0.35 4.18,4.18 0 0 0 1.41,-1 4.51,4.51 0 0 0 0.88,-1.55 6.42,6.42 0 0 0 0.3,-2 v -11.75 h 3.64 v 11.73 a 8.91,8.91 0 0 1 -0.56,3.23 7.21,7.21 0 0 1 -4.18,4.24 9.85,9.85 0 0 1 -6.77,0 7.17,7.17 0 0 1 -4.16,-4.24 9.13,9.13 0 0 1 -0.56,-3.23 v -11.73 h 3.64 v 11.72 a 6.46,6.46 0 0 0 0.3,2 4.61,4.61 0 0 0 0.88,1.55 3.94,3.94 0 0 0 1.4,1 4.9,4.9 0 0 0 1.89,0.38 z"
     id="path64"
     inkscape:connector-curvature="0"
     style="fill:#3c3c3b" />
  <path
     class="cls-3"
     d="m 496.25518,210.0931 v 3 h -5.89 v 16.59 h -3.64 v -16.59 h -5.92 v -3 z"
     id="path66"
     inkscape:connector-curvature="0"
     style="fill:#3c3c3b" />
  <path
     class="cls-3"
     d="m 502.86518,229.6831 h -3.65 v -19.59 h 3.65 z"
     id="path68"
     inkscape:connector-curvature="0"
     style="fill:#3c3c3b" />
  <path
     class="cls-3"
     d="m 509.77518,210.1531 a 1.23,1.23 0 0 1 0.29,0.09 0.92,0.92 0 0 1 0.25,0.17 3.15,3.15 0 0 1 0.27,0.31 l 10.28,13.09 c 0,-0.31 -0.06,-0.62 -0.08,-0.93 -0.02,-0.31 0,-0.58 0,-0.84 v -11.95 h 3.21 v 19.59 h -1.88 a 1.68,1.68 0 0 1 -0.72,-0.14 1.53,1.53 0 0 1 -0.55,-0.49 l -10.24,-13 c 0,0.29 0,0.58 0.06,0.86 0.06,0.28 0,0.55 0,0.78 v 12 h -3.21 v -19.6 h 1.91 z"
     id="path70"
     inkscape:connector-curvature="0"
     style="fill:#3c3c3b" />
  <path
     class="cls-3"
     d="m 537.11518,226.9931 a 9,9 0 0 0 2.14,-0.22 8.56,8.56 0 0 0 1.74,-0.62 v -3.56 h -2.45 a 0.75,0.75 0 0 1 -0.55,-0.19 0.63,0.63 0 0 1 -0.21,-0.48 v -2.06 h 6.52 v 7.92 a 11.86,11.86 0 0 1 -1.55,0.94 9.57,9.57 0 0 1 -1.72,0.66 12.61,12.61 0 0 1 -2,0.38 17.49,17.49 0 0 1 -2.25,0.13 10.35,10.35 0 0 1 -3.94,-0.74 9.24,9.24 0 0 1 -5.16,-5.24 10.59,10.59 0 0 1 -0.74,-4 11,11 0 0 1 0.72,-4 8.94,8.94 0 0 1 2,-3.17 9,9 0 0 1 3.21,-2.06 11.5,11.5 0 0 1 4.22,-0.73 10.89,10.89 0 0 1 4.15,0.71 9.42,9.42 0 0 1 3,1.85 l -1,1.65 a 1,1 0 0 1 -0.83,0.5 1.18,1.18 0 0 1 -0.66,-0.22 l -0.89,-0.51 a 6.15,6.15 0 0 0 -1,-0.45 8.35,8.35 0 0 0 -2.81,-0.43 6.65,6.65 0 0 0 -2.62,0.49 5.54,5.54 0 0 0 -2,1.39 6.36,6.36 0 0 0 -1.27,2.18 8.5,8.5 0 0 0 -0.45,2.84 8.82,8.82 0 0 0 0.48,3 6.41,6.41 0 0 0 1.32,2.23 5.81,5.81 0 0 0 2,1.38 6.81,6.81 0 0 0 2.6,0.43 z"
     id="path72"
     inkscape:connector-curvature="0"
     style="fill:#3c3c3b" />
</svg>
