<?xml version="1.0" encoding="UTF-8" standalone="no"?>
<svg
   xmlns:dc="http://purl.org/dc/elements/1.1/"
   xmlns:cc="http://creativecommons.org/ns#"
   xmlns:rdf="http://www.w3.org/1999/02/22-rdf-syntax-ns#"
   xmlns:svg="http://www.w3.org/2000/svg"
   xmlns="http://www.w3.org/2000/svg"
   xmlns:sodipodi="http://sodipodi.sourceforge.net/DTD/sodipodi-0.dtd"
   xmlns:inkscape="http://www.inkscape.org/namespaces/inkscape"
   height="24px"
   viewBox="0 0 24 24"
   width="24px"
   fill="#000000"
   version="1.1"
   id="svg6"
   sodipodi:docname="no_map.svg"
   inkscape:version="0.92.3 (2405546, 2018-03-11)">
  <metadata
     id="metadata12">
    <rdf:RDF>
      <cc:Work
         rdf:about="">
        <dc:format>image/svg+xml</dc:format>
        <dc:type
           rdf:resource="http://purl.org/dc/dcmitype/StillImage" />
        <dc:title></dc:title>
      </cc:Work>
    </rdf:RDF>
  </metadata>
  <defs
     id="defs10" />
  <sodipodi:namedview
     pagecolor="#ffffff"
     bordercolor="#666666"
     borderopacity="1"
     objecttolerance="10"
     gridtolerance="10"
     guidetolerance="10"
     inkscape:pageopacity="0"
     inkscape:pageshadow="2"
     inkscape:window-width="2560"
     inkscape:window-height="1327"
     id="namedview8"
     showgrid="false"
     inkscape:zoom="19.666667"
     inkscape:cx="0.57639273"
     inkscape:cy="9.8207874"
     inkscape:window-x="2560"
     inkscape:window-y="24"
     inkscape:window-maximized="1"
     inkscape:current-layer="svg6" />
  <path
     d="M0 0h24v24H0z"
     fill="none"
     id="path2" />
  <path
     d="M 9,3 8.14021,3.3419254 9.2582251,4.8000688 15,7.109375 l 0.135469,5.798877 4.788255,6.463165 0.716902,-0.271808 C 20.850625,19.029609 21,18.849141 21,18.619141 V 3.5 C 21,3.22 20.78,3 20.5,3 L 20.339844,3.0292969 15,5.0996094 Z M 5.6608654,4.2630913 3.359375,4.9003906 C 3.149375,4.9703906 3,5.1508594 3,5.3808594 V 20.5 C 3,20.78 3.22,21 3.5,21 L 3.6601562,20.970703 9,18.900391 15,21 17.351635,20.142221 15.006543,16.942453 15,19 9,16.890625 8.9640454,8.8159496 Z"
     id="path4"
     inkscape:connector-curvature="0"
     sodipodi:nodetypes="cccccccssccccccsscccccccccc" />
  <rect
     style="opacity:1;fill:#040401;fill-opacity:1;stroke:none;stroke-width:10;stroke-linecap:square;stroke-linejoin:round;stroke-miterlimit:4;stroke-dasharray:none;stroke-dashoffset:0;stroke-opacity:1;paint-order:normal"
     id="rect837-6"
     width="1.7977307"
     height="23.730026"
     x="2.4304712"
     y="4.6700225"
     ry="0.89886534"
     rx="0.89886534"
     transform="rotate(-36.262318)" />
</svg>
