<?xml version="1.0" encoding="UTF-8" standalone="no"?>
<svg
   xmlns:dc="http://purl.org/dc/elements/1.1/"
   xmlns:cc="http://creativecommons.org/ns#"
   xmlns:rdf="http://www.w3.org/1999/02/22-rdf-syntax-ns#"
   xmlns:svg="http://www.w3.org/2000/svg"
   xmlns="http://www.w3.org/2000/svg"
   xmlns:sodipodi="http://sodipodi.sourceforge.net/DTD/sodipodi-0.dtd"
   xmlns:inkscape="http://www.inkscape.org/namespaces/inkscape"
   height="24"
   viewBox="0 0 24 24"
   width="24"
   version="1.1"
   id="svg6"
   sodipodi:docname="questionmark.svg"
   inkscape:version="0.92.3 (2405546, 2018-03-11)">
  <metadata
     id="metadata12">
    <rdf:RDF>
      <cc:Work
         rdf:about="">
        <dc:format>image/svg+xml</dc:format>
        <dc:type
           rdf:resource="http://purl.org/dc/dcmitype/StillImage" />
        <dc:title></dc:title>
      </cc:Work>
    </rdf:RDF>
  </metadata>
  <defs
     id="defs10" />
  <sodipodi:namedview
     pagecolor="#ffffff"
     bordercolor="#666666"
     borderopacity="1"
     objecttolerance="10"
     gridtolerance="10"
     guidetolerance="10"
     inkscape:pageopacity="0"
     inkscape:pageshadow="2"
     inkscape:window-width="1920"
     inkscape:window-height="967"
     id="namedview8"
     showgrid="false"
     inkscape:zoom="19.666667"
     inkscape:cx="14.442131"
     inkscape:cy="12.465944"
     inkscape:window-x="2560"
     inkscape:window-y="24"
     inkscape:window-maximized="1"
     inkscape:current-layer="svg6" />
  <path
     d="M0 0h24v24H0z"
     fill="none"
     id="path2" />
  <path
     d="M 4 2 C 2.9 2 2.0097656 2.9 2.0097656 4 L 2 22 L 6 18 L 20 18 C 21.1 18 22 17.1 22 16 L 22 4 C 22 2.9 21.1 2 20 2 L 4 2 z M 12 4.1113281 C 13.858835 4.1113281 15.365234 5.6177278 15.365234 7.4765625 C 15.365234 8.216732 15.061459 8.8897126 14.582031 9.3691406 L 13.824219 10.142578 C 13.218626 10.756582 12.841797 11.261785 12.841797 12.523438 L 11.158203 12.523438 L 11.158203 12.103516 C 11.158203 11.178304 11.536985 10.33666 12.142578 9.7226562 L 13.185547 8.6621094 C 13.496755 8.3593124 13.681641 7.9391685 13.681641 7.4765625 C 13.681641 6.5513507 12.925212 5.7949219 12 5.7949219 C 11.074788 5.7949219 10.318359 6.5513507 10.318359 7.4765625 L 8.6347656 7.4765625 C 8.6347656 5.6177278 10.141165 4.1113281 12 4.1113281 z M 11.158203 14.205078 L 12.841797 14.205078 L 12.841797 15.888672 L 11.158203 15.888672 L 11.158203 14.205078 z "
     id="path4" />
</svg>
