<?xml version="1.0" encoding="UTF-8" standalone="no"?>
<!-- Created with Inkscape (http://www.inkscape.org/) -->

<svg
  xmlns:dc="http://purl.org/dc/elements/1.1/"
  xmlns:cc="http://creativecommons.org/ns#"
  xmlns:rdf="http://www.w3.org/1999/02/22-rdf-syntax-ns#"
  xmlns="http://www.w3.org/2000/svg"
  xmlns:sodipodi="http://sodipodi.sourceforge.net/DTD/sodipodi-0.dtd"
  xmlns:inkscape="http://www.inkscape.org/namespaces/inkscape"
  width="210mm"
  height="297mm"
  viewBox="0 0 210 297"
  version="1.1"
  id="svg8"
  inkscape:version="0.92.3 (2405546, 2018-03-11)"
  sodipodi:docname="QXsvg.svg">
  <defs
     id="defs2" />
  <sodipodi:namedview
     id="base"
     pagecolor="#ffffff"
     bordercolor="#666666"
     borderopacity="1.0"
     inkscape:pageopacity="0.0"
     inkscape:pageshadow="2"
     inkscape:zoom="0.49497475"
     inkscape:cx="217.11055"
     inkscape:cy="546.94066"
     inkscape:document-units="mm"
     inkscape:current-layer="layer1"
     showgrid="true"
     inkscape:snap-global="false"
     inkscape:window-width="1920"
     inkscape:window-height="967"
     inkscape:window-x="2560"
     inkscape:window-y="24"
     inkscape:window-maximized="1">
    <inkscape:grid
       type="xygrid"
       id="grid815" />
  </sodipodi:namedview>
  <metadata
     id="metadata5">
    <rdf:RDF>
      <cc:Work
         rdf:about="">
        <dc:format>image/svg+xml</dc:format>
        <dc:type
           rdf:resource="http://purl.org/dc/dcmitype/StillImage" />
        <dc:title></dc:title>
      </cc:Work>
    </rdf:RDF>
  </metadata>
  <g
     inkscape:label="Layer 1"
     inkscape:groupmode="layer"
     id="layer1">
    <path
       id="path833"
       style="fill:none;stroke:#000000;stroke-width:3.99492526;stroke-linecap:round;stroke-linejoin:miter;stroke-miterlimit:4;stroke-dasharray:none;stroke-opacity:1"
       d="M 63.469858,109.68835 5.2716353,87.615558 3.4386401,37.208085 19.935624,17.961601 m 81.491646,97.530379 43.15227,37.19501 46.74146,-26.12022 15.58048,0.45826 M 39.182117,291.99491 17.186135,291.53667 m 105.397425,0.45824 H 145.0378 M 72.634339,95.4058 c 0,0 -5.957247,86.15096 -11.914489,106.77218 -5.957247,20.62126 -14.205739,81.11018 -20.162982,89.35869 M 91.880829,95.4058 c 0,0 3.665991,93.02466 8.706741,114.56242 5.04075,21.53772 16.95524,76.98595 20.16299,82.48495 M 59.157203,2.8152108 c 0,0 -25.293528,9.8281812 -23.997403,40.9352112 1.296125,31.106991 9.58673,36.958648 18.488871,40.800977 C 73.090559,92.9762 107.03629,92.101602 120.43172,73.154718 128.17196,62.206702 128.26799,31.599724 114.5396,15.281699 102.31095,0.74631628 82.353244,1.6533048 62.2633,10.078119"
       inkscape:connector-curvature="0"
       sodipodi:nodetypes="cccccccccccccsccsccscssc" />
  </g>
</svg>
