<?xml version="1.0" encoding="UTF-8" standalone="no"?>
<!-- Created with Inkscape (http://www.inkscape.org/) -->

<svg
   xmlns:dc="http://purl.org/dc/elements/1.1/"
   xmlns:cc="http://creativecommons.org/ns#"
   xmlns:rdf="http://www.w3.org/1999/02/22-rdf-syntax-ns#"
   xmlns:svg="http://www.w3.org/2000/svg"
   xmlns="http://www.w3.org/2000/svg"
   xmlns:sodipodi="http://sodipodi.sourceforge.net/DTD/sodipodi-0.dtd"
   xmlns:inkscape="http://www.inkscape.org/namespaces/inkscape"
   width="200mm"
   height="200mm"
   viewBox="0 0 200 200"
   version="1.1"
   id="svg8"
   inkscape:version="0.92.3 (2405546, 2018-03-11)"
   sodipodi:docname="task1.svg"
   inkscape:export-filename="/home/eifler/XPP/user_studies/study_1/task_images/task1.png"
   inkscape:export-xdpi="96"
   inkscape:export-ydpi="96">
  <defs
     id="defs2" />
  <sodipodi:namedview
     id="base"
     pagecolor="#ffffff"
     bordercolor="#666666"
     borderopacity="1.0"
     inkscape:pageopacity="0.0"
     inkscape:pageshadow="2"
     inkscape:zoom="0.98994949"
     inkscape:cx="313.6089"
     inkscape:cy="398.63341"
     inkscape:document-units="mm"
     inkscape:current-layer="layer1"
     showgrid="true"
     inkscape:snap-global="false"
     inkscape:window-width="1920"
     inkscape:window-height="967"
     inkscape:window-x="2560"
     inkscape:window-y="24"
     inkscape:window-maximized="1">
    <inkscape:grid
       type="xygrid"
       id="grid815" />
  </sodipodi:namedview>
  <metadata
     id="metadata5">
    <rdf:RDF>
      <cc:Work
         rdf:about="">
        <dc:format>image/svg+xml</dc:format>
        <dc:type
           rdf:resource="http://purl.org/dc/dcmitype/StillImage" />
        <dc:title />
      </cc:Work>
    </rdf:RDF>
  </metadata>
  <g
     inkscape:label="Layer 1"
     inkscape:groupmode="layer"
     id="layer1"
     transform="translate(0,-97)">
    <circle
       style="fill:#000000;fill-opacity:1;stroke:none;stroke-width:0.37840101;stroke-linecap:round;stroke-linejoin:round;stroke-miterlimit:4;stroke-dasharray:none;stroke-opacity:1"
       id="path817-6-7"
       cx="167.44623"
       cy="202.63759"
       r="5.7210622" />
    <path
       style="fill:none;stroke:#000000;stroke-width:1.5;stroke-linecap:butt;stroke-linejoin:miter;stroke-miterlimit:4;stroke-dasharray:none;stroke-opacity:1"
       d="M 34.962797,134.84822 34.77381,203.82887"
       id="path867"
       inkscape:connector-curvature="0"
       sodipodi:nodetypes="cc" />
    <path
       style="fill:none;stroke:#000000;stroke-width:1.5;stroke-linecap:butt;stroke-linejoin:miter;stroke-miterlimit:4;stroke-dasharray:none;stroke-opacity:1"
       d="m 34.962798,135.03721 78.997022,-0.18899"
       id="path869"
       inkscape:connector-curvature="0"
       sodipodi:nodetypes="cc" />
    <path
       style="fill:none;stroke:#000000;stroke-width:1.5;stroke-linecap:butt;stroke-linejoin:miter;stroke-miterlimit:4;stroke-dasharray:none;stroke-opacity:1"
       d="m 34.395834,204.20684 41.310111,73.15019"
       id="path871"
       inkscape:connector-curvature="0"
       sodipodi:nodetypes="cc" />
    <path
       style="fill:none;stroke:#000000;stroke-width:1.5;stroke-linecap:butt;stroke-linejoin:miter;stroke-miterlimit:4;stroke-dasharray:none;stroke-opacity:1"
       d="m 34.77381,203.63988 133.47416,0.37798"
       id="path873"
       inkscape:connector-curvature="0"
       sodipodi:nodetypes="cc" />
    <path
       style="fill:none;stroke:#000000;stroke-width:1.5;stroke-linecap:butt;stroke-linejoin:miter;stroke-miterlimit:4;stroke-dasharray:none;stroke-opacity:1"
       d="m 114.52678,203.82887 -0.75594,-68.41369"
       id="path875"
       inkscape:connector-curvature="0"
       sodipodi:nodetypes="cc" />
    <path
       style="fill:none;stroke:#000000;stroke-width:1.5;stroke-linecap:butt;stroke-linejoin:miter;stroke-miterlimit:4;stroke-dasharray:none;stroke-opacity:1"
       d="m 114.90476,135.22619 53.29465,67.84672"
       id="path879"
       inkscape:connector-curvature="0"
       sodipodi:nodetypes="cc" />
    <path
       style="fill:none;stroke:#000000;stroke-width:1.5;stroke-linecap:butt;stroke-linejoin:miter;stroke-miterlimit:4;stroke-dasharray:none;stroke-opacity:1"
       d="m 76.13534,277.91451 38.01347,-73.89665"
       id="path881"
       inkscape:connector-curvature="0"
       sodipodi:nodetypes="cc" />
    <rect
       style="fill:#0faf15;fill-opacity:1;stroke:#0fb115;stroke-width:0.5;stroke-linecap:round;stroke-linejoin:miter;stroke-miterlimit:4;stroke-dasharray:none;stroke-opacity:1"
       id="rect883"
       width="12.284225"
       height="14.174108"
       x="121.71047"
       y="113.07102" />
    <path
       style="fill:#d60707;fill-opacity:1;stroke:#d60707;stroke-width:0.26458332px;stroke-linecap:butt;stroke-linejoin:miter;stroke-opacity:1"
       d="m 119.44262,113.44901 h 17.19791 l -9.26041,-10.58333 -7.9375,10.58333"
       id="path885"
       inkscape:connector-curvature="0" />
    <rect
       style="fill:#000000;fill-opacity:1;stroke:#000000;stroke-width:0.5;stroke-linecap:square;stroke-linejoin:miter;stroke-miterlimit:4;stroke-dasharray:none;stroke-opacity:1"
       id="rect887"
       width="3.9215028"
       height="7.1343002"
       x="128.13606"
       y="120.1581" />
    <rect
       style="fill:#ffffff;fill-opacity:1;stroke:#ffffff;stroke-width:0.5;stroke-linecap:square;stroke-linejoin:miter;stroke-miterlimit:4;stroke-dasharray:none;stroke-opacity:1"
       id="rect889"
       width="3.0238097"
       height="3.2600446"
       x="123.22238"
       y="115.33888" />
    <rect
       style="fill:#0f47af;fill-opacity:1;stroke:#0f47af;stroke-width:0.5;stroke-linecap:round;stroke-linejoin:miter;stroke-miterlimit:4;stroke-dasharray:none;stroke-opacity:1"
       id="rect883-5"
       width="12.284225"
       height="14.174108"
       x="89.525803"
       y="269.31409" />
    <path
       style="fill:#d60707;fill-opacity:1;stroke:#d60707;stroke-width:0.26458332px;stroke-linecap:butt;stroke-linejoin:miter;stroke-opacity:1"
       d="m 87.257952,269.69207 h 17.197918 l -9.260418,-10.58334 -7.9375,10.58334"
       id="path885-6"
       inkscape:connector-curvature="0" />
    <rect
       style="fill:#000000;fill-opacity:1;stroke:#000000;stroke-width:0.5;stroke-linecap:square;stroke-linejoin:miter;stroke-miterlimit:4;stroke-dasharray:none;stroke-opacity:1"
       id="rect887-2"
       width="3.9215028"
       height="7.1343002"
       x="95.951393"
       y="276.40115" />
    <rect
       style="fill:#ffffff;fill-opacity:1;stroke:#ffffff;stroke-width:0.5;stroke-linecap:square;stroke-linejoin:miter;stroke-miterlimit:4;stroke-dasharray:none;stroke-opacity:1"
       id="rect889-9"
       width="3.0238097"
       height="3.2600446"
       x="91.037712"
       y="271.58194" />
    <rect
       style="fill:#ffbc02;fill-opacity:1;stroke:#ffbc02;stroke-width:0.5;stroke-linecap:round;stroke-linejoin:miter;stroke-miterlimit:4;stroke-dasharray:none;stroke-opacity:1"
       id="rect883-5-1"
       width="12.284225"
       height="14.174108"
       x="9.4510374"
       y="192.54041" />
    <path
       style="fill:#d60707;fill-opacity:1;stroke:#d60707;stroke-width:0.26458332px;stroke-linecap:butt;stroke-linejoin:miter;stroke-opacity:1"
       d="M 7.1831873,192.9184 H 24.381106 L 15.120687,182.33506 7.1831873,192.9184"
       id="path885-6-2"
       inkscape:connector-curvature="0" />
    <rect
       style="fill:#000000;fill-opacity:1;stroke:#000000;stroke-width:0.5;stroke-linecap:square;stroke-linejoin:miter;stroke-miterlimit:4;stroke-dasharray:none;stroke-opacity:1"
       id="rect887-2-7"
       width="3.9215028"
       height="7.1343002"
       x="15.876629"
       y="199.62749" />
    <rect
       style="fill:#ffffff;fill-opacity:1;stroke:#ffffff;stroke-width:0.5;stroke-linecap:square;stroke-linejoin:miter;stroke-miterlimit:4;stroke-dasharray:none;stroke-opacity:1"
       id="rect889-9-0"
       width="3.0238097"
       height="3.2600446"
       x="10.962948"
       y="194.80826" />
    <rect
       style="fill:#e8cf40;fill-opacity:1;stroke:#e8cf40;stroke-width:0.5;stroke-linecap:square;stroke-linejoin:miter;stroke-miterlimit:4;stroke-dasharray:none;stroke-opacity:1"
       id="rect951-9"
       width="28.253719"
       height="17.859375"
       x="11.798285"
       y="106.05977" />
    <rect
       style="fill:#000000;fill-opacity:1;stroke:#000000;stroke-width:0.5;stroke-linecap:square;stroke-linejoin:miter;stroke-miterlimit:4;stroke-dasharray:none;stroke-opacity:1"
       id="rect953-3"
       width="9.4494047"
       height="10.29985"
       x="29.185173"
       y="113.61928" />
    <rect
       style="fill:#ffffff;fill-opacity:1;stroke:#ffffff;stroke-width:0.5;stroke-linecap:square;stroke-linejoin:miter;stroke-miterlimit:4;stroke-dasharray:none;stroke-opacity:1"
       id="rect955-6"
       width="13.229167"
       height="3.96875"
       x="13.215689"
       y="113.80829" />
    <text
       xml:space="preserve"
       style="font-style:normal;font-weight:normal;font-size:5.21106339px;line-height:1.25;font-family:sans-serif;letter-spacing:0px;word-spacing:0px;fill:#000000;fill-opacity:1;stroke:none;stroke-width:0.13027658"
       x="12.325537"
       y="110.48258"
       id="text959-0"><tspan
         sodipodi:role="line"
         id="tspan957-6"
         x="12.325537"
         y="110.48258"
         style="fill:#000000;fill-opacity:1;stroke-width:0.13027658">Post Office</tspan></text>
    <rect
       style="fill:#e8cf40;fill-opacity:1;stroke:#e8cf40;stroke-width:0.49213281;stroke-linecap:square;stroke-linejoin:miter;stroke-miterlimit:4;stroke-dasharray:none;stroke-opacity:1"
       id="rect951-2"
       width="27.359552"
       height="17.867243"
       x="156.65443"
       y="210.82549" />
    <rect
       style="fill:#e4ad14;fill-opacity:1;stroke:#e4ad14;stroke-width:0.5;stroke-linecap:square;stroke-linejoin:miter;stroke-miterlimit:4;stroke-dasharray:none;stroke-opacity:1"
       id="rect1003"
       width="5.3453903"
       height="2.271791"
       x="157.55539"
       y="215.34915" />
    <rect
       style="fill:#e4ad14;fill-opacity:1;stroke:#e4ad14;stroke-width:0.5;stroke-linecap:square;stroke-linejoin:miter;stroke-miterlimit:4;stroke-dasharray:none;stroke-opacity:1"
       id="rect1003-6"
       width="5.3453903"
       height="2.271791"
       x="157.55539"
       y="218.75684" />
    <rect
       style="fill:#e4ad14;fill-opacity:1;stroke:#e4ad14;stroke-width:0.5;stroke-linecap:square;stroke-linejoin:miter;stroke-miterlimit:4;stroke-dasharray:none;stroke-opacity:1"
       id="rect1003-1"
       width="5.3453903"
       height="2.271791"
       x="157.55539"
       y="222.16454" />
    <rect
       style="fill:#e4ad14;fill-opacity:1;stroke:#e4ad14;stroke-width:0.5;stroke-linecap:square;stroke-linejoin:miter;stroke-miterlimit:4;stroke-dasharray:none;stroke-opacity:1"
       id="rect1003-8"
       width="5.3453903"
       height="2.271791"
       x="157.55539"
       y="225.70584" />
    <rect
       style="fill:#e4ad14;fill-opacity:1;stroke:#e4ad14;stroke-width:0.5;stroke-linecap:square;stroke-linejoin:miter;stroke-miterlimit:4;stroke-dasharray:none;stroke-opacity:1"
       id="rect1003-7"
       width="5.3453903"
       height="2.271791"
       x="164.33736"
       y="215.31575" />
    <rect
       style="fill:#e4ad14;fill-opacity:1;stroke:#e4ad14;stroke-width:0.5;stroke-linecap:square;stroke-linejoin:miter;stroke-miterlimit:4;stroke-dasharray:none;stroke-opacity:1"
       id="rect1003-6-9"
       width="5.3453903"
       height="2.271791"
       x="164.33736"
       y="218.72342" />
    <rect
       style="fill:#e4ad14;fill-opacity:1;stroke:#e4ad14;stroke-width:0.5;stroke-linecap:square;stroke-linejoin:miter;stroke-miterlimit:4;stroke-dasharray:none;stroke-opacity:1"
       id="rect1003-1-2"
       width="5.3453903"
       height="2.271791"
       x="164.33736"
       y="222.13112" />
    <rect
       style="fill:#e4ad14;fill-opacity:1;stroke:#e4ad14;stroke-width:0.5;stroke-linecap:square;stroke-linejoin:miter;stroke-miterlimit:4;stroke-dasharray:none;stroke-opacity:1"
       id="rect1003-8-0"
       width="5.3453903"
       height="2.271791"
       x="164.33736"
       y="225.67244" />
    <rect
       style="fill:#e4ad14;fill-opacity:1;stroke:#e4ad14;stroke-width:0.5;stroke-linecap:square;stroke-linejoin:miter;stroke-miterlimit:4;stroke-dasharray:none;stroke-opacity:1"
       id="rect1003-2"
       width="5.3453903"
       height="2.271791"
       x="171.05249"
       y="215.41597" />
    <rect
       style="fill:#e4ad14;fill-opacity:1;stroke:#e4ad14;stroke-width:0.5;stroke-linecap:square;stroke-linejoin:miter;stroke-miterlimit:4;stroke-dasharray:none;stroke-opacity:1"
       id="rect1003-6-3"
       width="5.3453903"
       height="2.271791"
       x="171.05249"
       y="218.82364" />
    <rect
       style="fill:#e4ad14;fill-opacity:1;stroke:#e4ad14;stroke-width:0.5;stroke-linecap:square;stroke-linejoin:miter;stroke-miterlimit:4;stroke-dasharray:none;stroke-opacity:1"
       id="rect1003-1-7"
       width="5.3453903"
       height="2.271791"
       x="171.05249"
       y="222.23134" />
    <rect
       style="fill:#e4ad14;fill-opacity:1;stroke:#e4ad14;stroke-width:0.5;stroke-linecap:square;stroke-linejoin:miter;stroke-miterlimit:4;stroke-dasharray:none;stroke-opacity:1"
       id="rect1003-8-5"
       width="5.3453903"
       height="2.271791"
       x="171.05249"
       y="225.77266" />
    <rect
       style="fill:#e4ad14;fill-opacity:1;stroke:#e4ad14;stroke-width:0.5;stroke-linecap:square;stroke-linejoin:miter;stroke-miterlimit:4;stroke-dasharray:none;stroke-opacity:1"
       id="rect1003-9"
       width="5.3453903"
       height="2.271791"
       x="177.83444"
       y="215.38257" />
    <rect
       style="fill:#e4ad14;fill-opacity:1;stroke:#e4ad14;stroke-width:0.5;stroke-linecap:square;stroke-linejoin:miter;stroke-miterlimit:4;stroke-dasharray:none;stroke-opacity:1"
       id="rect1003-6-2"
       width="5.3453903"
       height="2.271791"
       x="177.83444"
       y="218.79025" />
    <rect
       style="fill:#e4ad14;fill-opacity:1;stroke:#e4ad14;stroke-width:0.5;stroke-linecap:square;stroke-linejoin:miter;stroke-miterlimit:4;stroke-dasharray:none;stroke-opacity:1"
       id="rect1003-1-28"
       width="5.3453903"
       height="2.271791"
       x="177.83444"
       y="222.19795" />
    <rect
       style="fill:#e4ad14;fill-opacity:1;stroke:#e4ad14;stroke-width:0.5;stroke-linecap:square;stroke-linejoin:miter;stroke-miterlimit:4;stroke-dasharray:none;stroke-opacity:1"
       id="rect1003-8-9"
       width="5.3453903"
       height="2.271791"
       x="177.83444"
       y="225.73926" />
    <g
       aria-label="Packing Station"
       transform="matrix(0.08852526,0,0,0.08852526,281.76986,157.9411)"
       style="font-style:normal;font-weight:normal;font-size:40px;line-height:1.25;font-family:sans-serif;letter-spacing:0px;word-spacing:0px;fill:#000000;fill-opacity:1;stroke:none"
       id="flowRoot1080">
      <path
         d="m -1406.3418,603.75391 v 10.95703 h 4.9609 q 2.7539,0 4.2579,-1.42578 1.5039,-1.42579 1.5039,-4.0625 0,-2.61719 -1.5039,-4.04297 -1.504,-1.42578 -4.2579,-1.42578 z m -3.9453,-3.24219 h 8.9062 q 4.9024,0 7.4024,2.22656 2.5195,2.20703 2.5195,6.48438 0,4.3164 -2.5195,6.52343 -2.5,2.20703 -7.4024,2.20703 h -4.9609 v 11.71875 h -3.9453 z"
         id="path1146"
         inkscape:connector-curvature="0" />
      <path
         d="m -1378.1582,618.67578 q -4.3555,0 -6.0352,0.99609 -1.6796,0.9961 -1.6796,3.39844 0,1.91406 1.25,3.04688 1.2695,1.11328 3.4375,1.11328 2.9882,0 4.7851,-2.10938 1.8164,-2.1289 1.8164,-5.64453 v -0.80078 z m 7.168,-1.48437 v 12.48046 h -3.5938 v -3.32031 q -1.2305,1.99219 -3.0664,2.94922 -1.8359,0.9375 -4.4922,0.9375 -3.3594,0 -5.3515,-1.875 -1.9727,-1.89453 -1.9727,-5.05859 0,-3.69141 2.4609,-5.56641 2.4805,-1.875 7.3829,-1.875 h 5.039 v -0.35156 q 0,-2.48047 -1.6406,-3.82813 -1.6211,-1.36718 -4.5703,-1.36718 -1.875,0 -3.6524,0.44921 -1.7773,0.44922 -3.4179,1.34766 v -3.32031 q 1.9726,-0.76172 3.8281,-1.13281 1.8555,-0.39063 3.6133,-0.39063 4.7461,0 7.0898,2.46094 2.3438,2.46094 2.3438,7.46094 z"
         id="path1148"
         inkscape:connector-curvature="0" />
      <path
         d="m -1347.8262,608.63672 v 3.35937 q -1.5234,-0.83984 -3.0664,-1.25 -1.5234,-0.42968 -3.0859,-0.42968 -3.4961,0 -5.4297,2.22656 -1.9336,2.20703 -1.9336,6.21094 0,4.0039 1.9336,6.23046 1.9336,2.20704 5.4297,2.20704 1.5625,0 3.0859,-0.41016 1.543,-0.42969 3.0664,-1.26953 v 3.32031 q -1.5039,0.70313 -3.125,1.05469 -1.6015,0.35156 -3.4179,0.35156 -4.9414,0 -7.8516,-3.10547 -2.9102,-3.10547 -2.9102,-8.3789 0,-5.35157 2.9297,-8.41797 2.9492,-3.06641 8.0664,-3.06641 1.6602,0 3.2422,0.35156 1.5821,0.33203 3.0664,1.01563 z"
         id="path1150"
         inkscape:connector-curvature="0" />
      <path
         d="m -1341.6738,599.28125 h 3.6133 v 17.94922 l 10.7226,-9.4336 h 4.5899 l -11.6016,10.23438 12.0898,11.64062 h -4.6875 l -11.1132,-10.68359 v 10.68359 h -3.6133 z"
         id="path1152"
         inkscape:connector-curvature="0" />
      <path
         d="m -1318.334,607.79687 h 3.5938 v 21.875 h -3.5938 z m 0,-8.51562 h 3.5938 v 4.55078 h -3.5938 z"
         id="path1154"
         inkscape:connector-curvature="0" />
      <path
         d="m -1289.0566,616.46875 v 13.20312 h -3.5938 v -13.08593 q 0,-3.10547 -1.2109,-4.64844 -1.211,-1.54297 -3.6328,-1.54297 -2.9102,0 -4.5899,1.85547 -1.6797,1.85547 -1.6797,5.05859 v 12.36328 h -3.6133 v -21.875 h 3.6133 v 3.39844 q 1.2891,-1.97265 3.0274,-2.94922 1.7578,-0.97656 4.0429,-0.97656 3.7696,0 5.7032,2.34375 1.9336,2.32422 1.9336,6.85547 z"
         id="path1156"
         inkscape:connector-curvature="0" />
      <path
         d="m -1267.4551,618.48047 q 0,-3.90625 -1.6211,-6.05469 -1.6015,-2.14844 -4.5117,-2.14844 -2.8906,0 -4.5117,2.14844 -1.6016,2.14844 -1.6016,6.05469 0,3.88672 1.6016,6.03515 1.6211,2.14844 4.5117,2.14844 2.9102,0 4.5117,-2.14844 1.6211,-2.14843 1.6211,-6.03515 z m 3.5938,8.47656 q 0,5.58594 -2.4805,8.30078 -2.4805,2.73438 -7.5977,2.73438 -1.8945,0 -3.5742,-0.29297 -1.6797,-0.27344 -3.2617,-0.85938 v -3.49609 q 1.582,0.85937 3.125,1.26953 1.543,0.41016 3.1445,0.41016 3.5352,0 5.293,-1.85547 1.7578,-1.83594 1.7578,-5.56641 v -1.77734 q -1.1133,1.93359 -2.8515,2.89062 -1.7383,0.95703 -4.1602,0.95703 -4.0234,0 -6.4844,-3.0664 -2.4609,-3.06641 -2.4609,-8.125 0,-5.07813 2.4609,-8.14453 2.461,-3.06641 6.4844,-3.06641 2.4219,0 4.1602,0.95703 1.7382,0.95703 2.8515,2.89063 v -3.32032 h 3.5938 z"
         id="path1158"
         inkscape:connector-curvature="0" />
      <path
         d="m -1226.0879,601.46875 v 3.84766 q -2.2461,-1.07422 -4.2383,-1.60157 -1.9922,-0.52734 -3.8476,-0.52734 -3.2227,0 -4.9805,1.25 -1.7383,1.25 -1.7383,3.55469 0,1.93359 1.1524,2.92968 1.1718,0.97657 4.414,1.58204 l 2.3828,0.48828 q 4.4141,0.83984 6.5039,2.96875 2.1094,2.10937 2.1094,5.66406 0,4.23828 -2.8515,6.42578 -2.8321,2.1875 -8.3204,2.1875 -2.0703,0 -4.414,-0.46875 -2.3242,-0.46875 -4.8242,-1.38672 v -4.0625 q 2.4023,1.34766 4.707,2.03125 2.3047,0.6836 4.5312,0.6836 3.379,0 5.2149,-1.32813 1.8359,-1.32812 1.8359,-3.78906 0,-2.14844 -1.3281,-3.35938 -1.3086,-1.21093 -4.3164,-1.8164 l -2.4023,-0.46875 q -4.4141,-0.87891 -6.3868,-2.75391 -1.9726,-1.875 -1.9726,-5.21484 0,-3.86719 2.7148,-6.09375 2.7344,-2.22657 7.5196,-2.22657 2.0507,0 4.1796,0.3711 2.1289,0.37109 4.3555,1.11328 z"
         id="path1160"
         inkscape:connector-curvature="0" />
      <path
         d="m -1214.7793,601.58594 v 6.21093 h 7.4023 v 2.79297 h -7.4023 v 11.875 q 0,2.67578 0.7227,3.4375 0.7421,0.76172 2.9882,0.76172 h 3.6914 v 3.00781 h -3.6914 q -4.1601,0 -5.7421,-1.54296 -1.5821,-1.5625 -1.5821,-5.66407 v -11.875 h -2.6367 v -2.79297 h 2.6367 v -6.21093 z"
         id="path1162"
         inkscape:connector-curvature="0" />
      <path
         d="m -1192.6895,618.67578 q -4.3554,0 -6.0351,0.99609 -1.6797,0.9961 -1.6797,3.39844 0,1.91406 1.25,3.04688 1.2695,1.11328 3.4375,1.11328 2.9883,0 4.7852,-2.10938 1.8164,-2.1289 1.8164,-5.64453 v -0.80078 z m 7.168,-1.48437 v 12.48046 h -3.5937 v -3.32031 q -1.2305,1.99219 -3.0664,2.94922 -1.836,0.9375 -4.4922,0.9375 -3.3594,0 -5.3516,-1.875 -1.9726,-1.89453 -1.9726,-5.05859 0,-3.69141 2.4609,-5.56641 2.4805,-1.875 7.3828,-1.875 h 5.0391 v -0.35156 q 0,-2.48047 -1.6407,-3.82813 -1.6211,-1.36718 -4.5703,-1.36718 -1.875,0 -3.6523,0.44921 -1.7774,0.44922 -3.418,1.34766 v -3.32031 q 1.9727,-0.76172 3.8281,-1.13281 1.8555,-0.39063 3.6133,-0.39063 4.7461,0 7.0899,2.46094 2.3437,2.46094 2.3437,7.46094 z"
         id="path1164"
         inkscape:connector-curvature="0" />
      <path
         d="m -1174.5449,601.58594 v 6.21093 h 7.4023 v 2.79297 h -7.4023 v 11.875 q 0,2.67578 0.7226,3.4375 0.7422,0.76172 2.9883,0.76172 h 3.6914 v 3.00781 h -3.6914 q -4.1601,0 -5.7422,-1.54296 -1.582,-1.5625 -1.582,-5.66407 v -11.875 h -2.6367 v -2.79297 h 2.6367 v -6.21093 z"
         id="path1166"
         inkscape:connector-curvature="0" />
      <path
         d="m -1162.3965,607.79687 h 3.5938 v 21.875 h -3.5938 z m 0,-8.51562 h 3.5938 v 4.55078 h -3.5938 z"
         id="path1168"
         inkscape:connector-curvature="0" />
      <path
         d="m -1142.8262,610.31641 q -2.8906,0 -4.5703,2.26562 -1.6797,2.24609 -1.6797,6.17188 0,3.92578 1.6602,6.1914 1.6797,2.2461 4.5898,2.2461 2.8711,0 4.5508,-2.26563 1.6797,-2.26562 1.6797,-6.17187 0,-3.88672 -1.6797,-6.15235 -1.6797,-2.28515 -4.5508,-2.28515 z m 0,-3.04688 q 4.6875,0 7.3633,3.04688 2.6758,3.04687 2.6758,8.4375 0,5.37109 -2.6758,8.4375 -2.6758,3.04687 -7.3633,3.04687 -4.707,0 -7.3828,-3.04687 -2.6562,-3.06641 -2.6562,-8.4375 0,-5.39063 2.6562,-8.4375 2.6758,-3.04688 7.3828,-3.04688 z"
         id="path1170"
         inkscape:connector-curvature="0" />
      <path
         d="m -1108.666,616.46875 v 13.20312 h -3.5938 v -13.08593 q 0,-3.10547 -1.2109,-4.64844 -1.2109,-1.54297 -3.6328,-1.54297 -2.9102,0 -4.5899,1.85547 -1.6796,1.85547 -1.6796,5.05859 v 12.36328 h -3.6133 v -21.875 h 3.6133 v 3.39844 q 1.289,-1.97265 3.0273,-2.94922 1.7578,-0.97656 4.043,-0.97656 3.7695,0 5.7031,2.34375 1.9336,2.32422 1.9336,6.85547 z"
         id="path1172"
         inkscape:connector-curvature="0" />
    </g>
    <circle
       style="fill:#000000;fill-opacity:1;stroke:none;stroke-width:0.37840101;stroke-linecap:round;stroke-linejoin:round;stroke-miterlimit:4;stroke-dasharray:none;stroke-opacity:1"
       id="path817-6-7-7"
       cx="114.2433"
       cy="203.54538"
       r="5.7210627" />
    <circle
       style="fill:#000000;fill-opacity:1;stroke:none;stroke-width:0.37840101;stroke-linecap:round;stroke-linejoin:round;stroke-miterlimit:4;stroke-dasharray:none;stroke-opacity:1"
       id="path817-6-7-3"
       cx="34.58482"
       cy="203.73438"
       r="5.7210627" />
    <circle
       style="fill:#000000;fill-opacity:1;stroke:none;stroke-width:0.37840101;stroke-linecap:round;stroke-linejoin:round;stroke-miterlimit:4;stroke-dasharray:none;stroke-opacity:1"
       id="path817-6-7-6"
       cx="75.784225"
       cy="277.15625"
       r="5.7210627" />
    <circle
       style="fill:#000000;fill-opacity:1;stroke:none;stroke-width:0.37840101;stroke-linecap:round;stroke-linejoin:round;stroke-miterlimit:4;stroke-dasharray:none;stroke-opacity:1"
       id="path817-6-7-1"
       cx="35.057293"
       cy="135.0372"
       r="5.7210627" />
    <circle
       style="fill:#000000;fill-opacity:1;stroke:none;stroke-width:0.37840101;stroke-linecap:round;stroke-linejoin:round;stroke-miterlimit:4;stroke-dasharray:none;stroke-opacity:1"
       id="path817-6-7-2"
       cx="114.2433"
       cy="135.1317"
       r="5.7210627" />
    <rect
       style="fill:#17a5c2;fill-opacity:1;stroke:#17a5c2;stroke-width:0.5;stroke-linecap:square;stroke-linejoin:miter;stroke-miterlimit:4;stroke-dasharray:none;stroke-opacity:1"
       id="rect951-9-3"
       width="28.253719"
       height="17.859375"
       x="80.486557"
       y="179.55888" />
    <rect
       style="fill:#000000;fill-opacity:1;stroke:#000000;stroke-width:0.31731158;stroke-linecap:square;stroke-linejoin:miter;stroke-miterlimit:4;stroke-dasharray:none;stroke-opacity:1"
       id="rect953-3-6"
       width="5.0018849"
       height="7.8367057"
       x="91.734467"
       y="189.67288" />
    <rect
       style="fill:#ffffff;fill-opacity:1;stroke:#ffffff;stroke-width:0.44875979;stroke-linecap:square;stroke-linejoin:miter;stroke-miterlimit:4;stroke-dasharray:none;stroke-opacity:1"
       id="rect955-6-7"
       width="6.0043654"
       height="7.0437994"
       x="83.390244"
       y="186.14784" />
    <rect
       style="fill:#ffffff;fill-opacity:1;stroke:#ffffff;stroke-width:0.56663477;stroke-linecap:square;stroke-linejoin:miter;stroke-miterlimit:4;stroke-dasharray:none;stroke-opacity:1"
       id="rect955-6-7-5"
       width="9.4772644"
       height="7.1149116"
       x="98.25988"
       y="186.00279" />
    <g
       aria-label="Cafe"
       transform="matrix(0.15469599,0,0,0.15469599,63.772012,143.65636)"
       style="font-style:normal;font-weight:normal;font-size:40px;line-height:1.25;font-family:sans-serif;letter-spacing:0px;word-spacing:0px;fill:#000000;fill-opacity:1;stroke:none"
       id="flowRoot917">
      <path
         d="m 176.47656,239.73828 v 4.16016 q -1.99219,-1.85547 -4.25781,-2.77344 -2.24609,-0.91797 -4.78516,-0.91797 -5,0 -7.65625,3.06641 -2.65625,3.04687 -2.65625,8.82812 0,5.76172 2.65625,8.82813 2.65625,3.04687 7.65625,3.04687 2.53907,0 4.78516,-0.91797 2.26562,-0.91797 4.25781,-2.77343 v 4.12109 q -2.07031,1.40625 -4.39453,2.10937 -2.30469,0.70313 -4.88281,0.70313 -6.6211,0 -10.42969,-4.04297 -3.80859,-4.0625 -3.80859,-11.07422 0,-7.03125 3.80859,-11.07422 3.80859,-4.0625 10.42969,-4.0625 2.61719,0 4.92187,0.70313 2.32422,0.68359 4.35547,2.07031 z"
         id="path925"
         inkscape:connector-curvature="0" />
      <path
         d="m 192.39453,255.65625 q -4.35547,0 -6.03516,0.99609 -1.67968,0.9961 -1.67968,3.39844 0,1.91406 1.25,3.04688 1.26953,1.11328 3.4375,1.11328 2.98828,0 4.78515,-2.10938 1.81641,-2.1289 1.81641,-5.64453 v -0.80078 z m 7.16797,-1.48438 v 12.48047 h -3.59375 v -3.32031 q -1.23047,1.99219 -3.06641,2.94922 -1.83593,0.9375 -4.49218,0.9375 -3.35938,0 -5.35157,-1.875 -1.97265,-1.89453 -1.97265,-5.05859 0,-3.69141 2.46093,-5.56641 2.48047,-1.875 7.38282,-1.875 h 5.03906 v -0.35156 q 0,-2.48047 -1.64063,-3.82813 -1.62109,-1.36719 -4.57031,-1.36719 -1.875,0 -3.65234,0.44922 -1.77735,0.44922 -3.41797,1.34766 v -3.32031 q 1.97266,-0.76172 3.82812,-1.13282 1.85547,-0.39062 3.61329,-0.39062 4.74609,0 7.08984,2.46094 2.34375,2.46093 2.34375,7.46093 z"
         id="path927"
         inkscape:connector-curvature="0" />
      <path
         d="M 218.05859,236.26172 V 239.25 h -3.4375 q -1.93359,0 -2.69531,0.78125 -0.74219,0.78125 -0.74219,2.8125 v 1.93359 h 5.91797 v 2.79297 h -5.91797 v 19.08203 h -3.61328 v -19.08203 h -3.4375 v -2.79297 h 3.4375 v -1.52343 q 0,-3.65235 1.69922,-5.3125 1.69922,-1.67969 5.39063,-1.67969 z"
         id="path929"
         inkscape:connector-curvature="0" />
      <path
         d="m 239.75781,254.81641 v 1.75781 h -16.52344 q 0.23438,3.71094 2.22657,5.66406 2.01172,1.93359 5.58593,1.93359 2.07032,0 4.00391,-0.50781 1.95313,-0.50781 3.86719,-1.52344 v 3.39844 q -1.9336,0.82031 -3.96485,1.25 -2.03125,0.42969 -4.12109,0.42969 -5.23437,0 -8.30078,-3.04688 -3.04688,-3.04687 -3.04688,-8.24218 0,-5.3711 2.89063,-8.51563 2.91016,-3.16406 7.83203,-3.16406 4.41406,0 6.97266,2.85156 2.57812,2.83203 2.57812,7.71485 z m -3.59375,-1.05469 q -0.0391,-2.94922 -1.66015,-4.70703 -1.60157,-1.75782 -4.25782,-1.75782 -3.00781,0 -4.82422,1.69922 -1.79687,1.69922 -2.07031,4.78516 z"
         id="path931"
         inkscape:connector-curvature="0" />
    </g>
    <path
       style="fill:#eae0d1;fill-opacity:1;stroke:#eae0d1;stroke-width:0.26458332px;stroke-linecap:butt;stroke-linejoin:miter;stroke-opacity:1"
       d="m 87.784969,172.55134 h 11.859003 c 0,0 -1.011741,5.42232 -3.874257,6.56734 -0.236235,0.0945 -4.063243,-0.0472 -4.063243,-0.0472 -2.740326,-1.13393 -3.921503,-6.52009 -3.921503,-6.52009 z"
       id="path934"
       inkscape:connector-curvature="0"
       sodipodi:nodetypes="ccsccc" />
    <path
       style="fill:none;fill-opacity:1;stroke:#eae0d1;stroke-width:0.66500002;stroke-linecap:butt;stroke-linejoin:miter;stroke-miterlimit:4;stroke-dasharray:none;stroke-opacity:1"
       d="m 99.360492,174.4176 c 0.188987,0 1.393788,-1.32292 1.913508,-0.23624 0.51971,1.08669 -3.850636,3.85064 -3.850636,3.85064 l 0.968564,-1.8072 z"
       id="path936"
       inkscape:connector-curvature="0"
       sodipodi:nodetypes="ccccc" />
    <path
       style="fill:none;stroke:#000000;stroke-width:0.26458332px;stroke-linecap:butt;stroke-linejoin:miter;stroke-opacity:1"
       d="m 91.966332,166.03125 c 0,0 -0.968566,0.96856 -0.850448,1.70089 0.118118,0.73233 1.13393,1.41741 0.921316,1.98438 -0.212611,0.56696 -0.661458,1.34654 -0.354351,1.84263"
       id="path946"
       inkscape:connector-curvature="0" />
    <path
       style="fill:none;stroke:#000000;stroke-width:0.26458332px;stroke-linecap:butt;stroke-linejoin:miter;stroke-opacity:1"
       d="m 92.958518,167.4959 c 0.543341,1.08668 0.992189,1.25205 0.614211,2.05525 -0.661458,0.75594 -0.448847,1.63002 -0.236236,2.00799"
       id="path948"
       inkscape:connector-curvature="0"
       sodipodi:nodetypes="ccc" />
    <path
       style="fill:none;stroke:#000000;stroke-width:0.26458332px;stroke-linecap:butt;stroke-linejoin:miter;stroke-opacity:1"
       d="m 94.683034,168.91332 c 0.354354,0.49609 0.755954,0.59058 0.448849,1.39378 -0.377978,0.4016 -0.448849,0.99219 -0.165371,1.37017"
       id="path950"
       inkscape:connector-curvature="0"
       sodipodi:nodetypes="ccc" />
  </g>
</svg>
