<?xml version="1.0" encoding="UTF-8" standalone="no"?>
<!-- Created with Inkscape (http://www.inkscape.org/) -->

<svg
   xmlns:dc="http://purl.org/dc/elements/1.1/"
   xmlns:cc="http://creativecommons.org/ns#"
   xmlns:rdf="http://www.w3.org/1999/02/22-rdf-syntax-ns#"
   xmlns:svg="http://www.w3.org/2000/svg"
   xmlns="http://www.w3.org/2000/svg"
   xmlns:sodipodi="http://sodipodi.sourceforge.net/DTD/sodipodi-0.dtd"
   xmlns:inkscape="http://www.inkscape.org/namespaces/inkscape"
   width="80mm"
   height="50mm"
   viewBox="0 0 80 50"
   version="1.1"
   id="svg1181"
   inkscape:version="0.92.3 (2405546, 2018-03-11)"
   sodipodi:docname="truck_blue.svg"
   inkscape:export-filename="/home/eifler/XPP/user_studies/icaps21/transport/task_images/png/truck_2.png"
   inkscape:export-xdpi="96"
   inkscape:export-ydpi="96">
  <defs
     id="defs1175" />
  <sodipodi:namedview
     id="base"
     pagecolor="#ffffff"
     bordercolor="#666666"
     borderopacity="1.0"
     inkscape:pageopacity="0.0"
     inkscape:pageshadow="2"
     inkscape:zoom="2.8"
     inkscape:cx="154.84456"
     inkscape:cy="90.113395"
     inkscape:document-units="mm"
     inkscape:current-layer="layer1"
     showgrid="true"
     width="50mm"
     inkscape:snap-global="false"
     inkscape:window-width="1920"
     inkscape:window-height="967"
     inkscape:window-x="2560"
     inkscape:window-y="24"
     inkscape:window-maximized="1">
    <inkscape:grid
       type="xygrid"
       id="grid1726" />
  </sodipodi:namedview>
  <metadata
     id="metadata1178">
    <rdf:RDF>
      <cc:Work
         rdf:about="">
        <dc:format>image/svg+xml</dc:format>
        <dc:type
           rdf:resource="http://purl.org/dc/dcmitype/StillImage" />
        <dc:title />
      </cc:Work>
    </rdf:RDF>
  </metadata>
  <g
     inkscape:label="Layer 1"
     inkscape:groupmode="layer"
     id="layer1"
     transform="translate(0,-247)">
    <path
       style="fill:#0030b7;fill-opacity:1;stroke:#0030b7;stroke-width:0.36502641px;stroke-linecap:butt;stroke-linejoin:miter;stroke-opacity:1"
       d="m 46.810317,248.15734 -23.255633,0.11753 -5.597405,18.65235 -15.7380943,2.28826 v -0.10544 l -0.1046017,18.47477 9.085752,0.0251 a 8.9117879,8.9117879 0 0 1 8.847357,-7.89378 8.9117879,8.9117879 0 0 1 8.848167,7.94162 l 24.135419,0.0657 a 8.9117879,8.9117879 0 0 1 8.849789,-7.90271 8.9117879,8.9117879 0 0 1 8.848977,7.95135 l 7.985409,0.0218 0.105414,-21.07684 -32.01055,0.21001 z m -21.322529,2.16258 16.000817,0.0527 v 16.38761 l -20.627617,0.10466 z"
       id="path1728"
       inkscape:connector-curvature="0"
       inkscape:export-xdpi="96"
       inkscape:export-ydpi="96" />
    <path
       style="fill:#13d7ff;fill-opacity:0.59433959;stroke:#13d7ff;stroke-width:0.41516328px;stroke-linecap:butt;stroke-linejoin:miter;stroke-opacity:0.59607843"
       d="M 21.141895,266.63065 H 41.381106 L 41.23284,250.54307 25.664216,250.32066 Z"
       id="path1750"
       inkscape:connector-curvature="0" />
    <circle
       style="fill:#1d1500;fill-opacity:1;stroke:#0c0900;stroke-width:0.67203349;stroke-linecap:square;stroke-linejoin:miter;stroke-miterlimit:4;stroke-dasharray:none;stroke-opacity:1"
       id="path1732-3"
       cx="19.91865"
       cy="288.72324"
       r="7.6335988" />
    <circle
       style="fill:#1d1500;fill-opacity:1;stroke:#0c0900;stroke-width:0.67203349;stroke-linecap:square;stroke-linejoin:miter;stroke-miterlimit:4;stroke-dasharray:none;stroke-opacity:1"
       id="path1732-3-9"
       cx="61.916866"
       cy="288.57498"
       r="7.6335993" />
    <circle
       style="fill:#ffffff;fill-opacity:1;stroke:#ffffff;stroke-width:0.2531828;stroke-linecap:square;stroke-linejoin:miter;stroke-miterlimit:4;stroke-dasharray:none;stroke-opacity:1"
       id="path1732-3-4"
       cx="19.91865"
       cy="288.72324"
       r="2.8758926" />
    <circle
       style="fill:#ffffff;fill-opacity:1;stroke:#ffffff;stroke-width:0.2531828;stroke-linecap:square;stroke-linejoin:miter;stroke-miterlimit:4;stroke-dasharray:none;stroke-opacity:1"
       id="path1732-3-4-4"
       cx="61.916866"
       cy="288.57498"
       r="2.8758926" />
    <g
       aria-label="2"
       transform="matrix(0.39217023,0,0,0.41736529,-11.269961,259.73392)"
       style="font-style:normal;font-variant:normal;font-weight:normal;font-stretch:normal;font-size:40px;line-height:1.25;font-family:sans-serif;-inkscape-font-specification:sans-serif;letter-spacing:0px;word-spacing:0px;fill:#ffffff;fill-opacity:1;stroke:none"
       id="flowRoot822">
      <path
         d="m 212.31836,45.689453 h 13.76953 v 3.320313 h -18.51562 v -3.320313 q 2.24609,-2.324219 6.11328,-6.230469 3.88672,-3.925781 4.88281,-5.058593 1.89453,-2.128907 2.63672,-3.59375 0.76172,-1.484375 0.76172,-2.910157 0,-2.324218 -1.64063,-3.789062 -1.62109,-1.464844 -4.23828,-1.464844 -1.85547,0 -3.92578,0.644531 -2.05078,0.644532 -4.39453,1.953125 v -3.984375 q 2.38281,-0.957031 4.45312,-1.445312 2.07032,-0.488281 3.78907,-0.488281 4.53125,0 7.22656,2.265625 2.69531,2.265625 2.69531,6.054687 0,1.796875 -0.68359,3.417969 -0.66407,1.601562 -2.44141,3.789062 -0.48828,0.566407 -3.10547,3.28125 -2.61719,2.695313 -7.38281,7.558594 z"
         id="path823"
         inkscape:connector-curvature="0" />
    </g>
  </g>
</svg>
